<svg xmlns="http://www.w3.org/2000/svg" viewBox="0 0 500 500"><g id="freepik--background-complete--inject-15"><path d="M327,264c7.19,0,128.17.8,135.78.56.54,0,.84-.82.29-1.09-4.79-2.38-10.23-1.9-15.21-3.58-2.93-1-4.73-2.9-6.76-5.1a14,14,0,0,0-6.3-4.11,13.26,13.26,0,0,0-6.85-.21c-2.46.58-4.59,2-6.93,2.87-5.81,2.2-11.46.11-15.61-4.19-3.42-3.54-6.79-6.89-11.44-8.8a15.16,15.16,0,0,0-12.12-.16c-4.44,2-7.48,6.05-11.65,8.48-4.94,2.89-10.85,2.21-16.31,3.08s-9.64,5.47-14.43,8.11a10.24,10.24,0,0,1-5.22,1.62c-1.07,0-2.12-.32-3.17-.45-1.65-.2-3.22-.16-4.33,1.22C326.51,262.58,326.56,264,327,264Z" style="fill:#ebebeb"></path><path d="M36.91,104.68c5.25,0,93.58.58,99.13.41.4,0,.62-.6.22-.8-3.5-1.73-7.47-1.38-11.11-2.61C123,101,121.7,99.56,120.22,98a10.25,10.25,0,0,0-4.6-3,9.64,9.64,0,0,0-5-.16c-1.8.43-3.35,1.45-5.06,2.1-4.25,1.6-8.37.08-11.4-3.06-2.5-2.59-5-5-8.35-6.42A11.12,11.12,0,0,0,77,87.29c-3.24,1.47-5.46,4.42-8.51,6.2-3.6,2.11-7.92,1.61-11.9,2.25s-7,4-10.54,5.92a7.52,7.52,0,0,1-3.81,1.18,22.72,22.72,0,0,1-2.32-.33,3.17,3.17,0,0,0-3.15.89C36.53,103.65,36.57,104.68,36.91,104.68Z" style="fill:#ebebeb"></path><path d="M325.11,199.88c5.25,0,93.57.58,99.13.41.39,0,.61-.6.21-.8-3.5-1.73-7.47-1.38-11.1-2.61-2.14-.72-3.46-2.12-4.94-3.72a10.2,10.2,0,0,0-4.6-3,9.64,9.64,0,0,0-5-.16,42.82,42.82,0,0,0-5.06,2.1c-4.24,1.6-8.37.08-11.4-3.06-2.49-2.59-5-5-8.35-6.42a11.08,11.08,0,0,0-8.85-.13c-3.24,1.47-5.46,4.42-8.5,6.2-3.61,2.11-7.92,1.61-11.91,2.24s-7,4-10.54,5.93a7.49,7.49,0,0,1-3.81,1.18,23.13,23.13,0,0,1-2.32-.33,3.17,3.17,0,0,0-3.15.89C324.72,198.84,324.76,199.88,325.11,199.88Z" style="fill:#ebebeb"></path><path d="M102.57,209.23c5.25,0,93.58.58,99.13.4.4,0,.61-.6.22-.79-3.5-1.74-7.47-1.39-11.11-2.61-2.14-.72-3.45-2.12-4.94-3.73a10.22,10.22,0,0,0-4.59-3,9.79,9.79,0,0,0-5-.16c-1.79.43-3.35,1.46-5.06,2.1-4.24,1.61-8.36.08-11.39-3.06-2.5-2.58-5-5-8.35-6.42a11.08,11.08,0,0,0-8.85-.12c-3.24,1.47-5.47,4.42-8.51,6.19-3.61,2.11-7.92,1.61-11.9,2.25s-7,4-10.54,5.92a7.45,7.45,0,0,1-3.81,1.18c-.78,0-1.55-.23-2.32-.32a3.18,3.18,0,0,0-3.16.88C102.19,208.19,102.23,209.23,102.57,209.23Z" style="fill:#ebebeb"></path><path d="M147.41,170.85c.1.29,139.21,0,137.46,0-.8,0,1.21-1.2.43-1.59-4.53-2.25-9.49-2.31-14.42-2.76a22.26,22.26,0,0,1-8.42-2c-2.62-1.38-4.25-3.76-6.12-6a26.1,26.1,0,0,0-23.75-9c-9.89,1.55-17.69,9.08-27.6,10.47-6,.83-11.58-1.47-17.4-2.28a21.24,21.24,0,0,0-13.06,2.38c-3.14,1.56-6,2.87-9.59,3.11-2.72.2-5.46-.11-8.18-.14a18.34,18.34,0,0,0-12,4.81C144.26,168.24,142.86,170.85,147.41,170.85Z" style="fill:#ebebeb"></path><path d="M442.66,424.37c-.78-.32-1.12.95-.35,1.26a4.25,4.25,0,0,1,2.47,5.13.65.65,0,0,0,1.26.35A5.59,5.59,0,0,0,442.66,424.37Z" style="fill:#ebebeb"></path><path d="M448.38,423.15a10,10,0,0,0-.76,5.78c.13.83,1.39.48,1.26-.35a8.5,8.5,0,0,1,.62-4.77C449.84,423.05,448.72,422.39,448.38,423.15Z" style="fill:#ebebeb"></path><path d="M413.69,341.18c-.78-.32-1.12.95-.35,1.26a4.25,4.25,0,0,1,2.47,5.13.65.65,0,0,0,1.26.35A5.59,5.59,0,0,0,413.69,341.18Z" style="fill:#ebebeb"></path><path d="M419.41,340a10,10,0,0,0-.76,5.78c.13.83,1.39.48,1.26-.35a8.5,8.5,0,0,1,.62-4.77C420.87,339.86,419.75,339.2,419.41,340Z" style="fill:#ebebeb"></path><path d="M308.46,451.78c-.74-.39-1.4.73-.66,1.13a4,4,0,0,1,2.16,3.95c-.07.84,1.24.84,1.31,0A5.28,5.28,0,0,0,308.46,451.78Z" style="fill:#ebebeb"></path><path d="M54.2,358.17c-.75-.4-1.41.73-.66,1.13a4,4,0,0,1,2.16,3.95c-.07.84,1.24.84,1.3,0A5.29,5.29,0,0,0,54.2,358.17Z" style="fill:#ebebeb"></path><path d="M226.31,444.82c-.4-.74-1.53-.08-1.13.66a10.55,10.55,0,0,1,1.23,5.59c0,.84,1.26.83,1.31,0A11.83,11.83,0,0,0,226.31,444.82Z" style="fill:#ebebeb"></path><path d="M229.34,445.69a6.81,6.81,0,0,0-.84,4.17c.11.82,1.41.83,1.31,0a5.71,5.71,0,0,1,.65-3.51C230.87,445.61,229.74,445,229.34,445.69Z" style="fill:#ebebeb"></path><path d="M94.57,329.31c-.4-.74-1.53-.08-1.13.66a10.36,10.36,0,0,1,1.23,5.59c0,.84,1.27.84,1.31,0A11.73,11.73,0,0,0,94.57,329.31Z" style="fill:#ebebeb"></path><path d="M97.6,330.18a6.81,6.81,0,0,0-.83,4.17c.1.82,1.41.83,1.3,0a5.65,5.65,0,0,1,.66-3.51C99.13,330.1,98,329.44,97.6,330.18Z" style="fill:#ebebeb"></path><path d="M137.39,420.25c-.74-.4-1.41.73-.66,1.13a4,4,0,0,1,2.16,3.95c-.07.84,1.24.83,1.31,0A5.28,5.28,0,0,0,137.39,420.25Z" style="fill:#ebebeb"></path><path d="M141.28,418.2c-.4-.74-1.53-.08-1.13.66a10.36,10.36,0,0,1,1.23,5.59c0,.84,1.27.84,1.31,0A11.73,11.73,0,0,0,141.28,418.2Z" style="fill:#ebebeb"></path><path d="M144.31,419.07a6.82,6.82,0,0,0-.83,4.17c.1.83,1.41.84,1.3,0a5.65,5.65,0,0,1,.66-3.51C145.84,419,144.72,418.33,144.31,419.07Z" style="fill:#ebebeb"></path><path d="M168.67,456.67a.65.65,0,0,0-.66,1.13,5.29,5.29,0,0,1,2.63,4.92c0,.84,1.26.84,1.31,0A6.61,6.61,0,0,0,168.67,456.67Z" style="fill:#ebebeb"></path><path d="M173.46,459.8l-.45,2.63c-.14.82,1.12,1.17,1.26.34l.45-2.63C174.86,459.32,173.6,459,173.46,459.8Z" style="fill:#ebebeb"></path><path d="M51.58,426.15c-.65-.53-1.57.39-.93.92a6.07,6.07,0,0,1,2.26,5.12c0,.84,1.27.84,1.31,0A7.3,7.3,0,0,0,51.58,426.15Z" style="fill:#ebebeb"></path><path d="M377.32,410.43c.64-.53,1.57.39.93.93a6,6,0,0,0-2.26,5.11c0,.84-1.27.84-1.31,0A7.3,7.3,0,0,1,377.32,410.43Z" style="fill:#ebebeb"></path><path d="M452.22,357.26c.64-.53,1.57.39.92.93a6.07,6.07,0,0,0-2.26,5.11c.05.84-1.26.84-1.3,0A7.28,7.28,0,0,1,452.22,357.26Z" style="fill:#ebebeb"></path><path d="M352.27,450.11a7.76,7.76,0,0,0-2.08,6.91c.15.82,1.41.47,1.26-.35a6.36,6.36,0,0,1,1.74-5.64C353.78,450.43,352.85,449.5,352.27,450.11Z" style="fill:#ebebeb"></path><path d="M347.5,450.82v4.39a.66.66,0,0,0,1.31,0v-4.39A.66.66,0,0,0,347.5,450.82Z" style="fill:#ebebeb"></path><path d="M354.5,452.2a4,4,0,0,0-1.85,3.55c0,.84,1.34.85,1.31,0a2.67,2.67,0,0,1,1.2-2.42C355.86,452.87,355.2,451.74,354.5,452.2Z" style="fill:#ebebeb"></path><path d="M42.91,315.62s75.57-51.89,122.43-51.89c56.28,0,111,23.12,131.7,30.76,54.49,20.06,160,21.13,160,21.13Z" style="fill:#dbdbdb"></path><path d="M457.09,315.62s-42.91-30.19-91.38-30.19c-33.84,0-82.4,6.25-128.13,16.5-17.42,3.9-108.07,13.69-108.07,13.69Z" style="fill:#c7c7c7"></path></g><g id="freepik--Sun--inject-15"><circle cx="374.49" cy="92.42" r="47.21" style="fill:#FFC727;opacity:0.2"></circle><circle cx="374.49" cy="92.42" r="36.09" style="fill:#FFC727"></circle></g><g id="freepik--Trees--inject-15"><path d="M189.6,303c-.92.93-11.72,1.34-15.65,1.34S159.22,304,158.3,303s12.15-72.7,15.65-72.7S190.53,302.12,189.6,303Z" style="fill:#455a64"></path><path d="M189.82,284.75c-2.67,1-12.55,5-14.69,6.22v-1.35q3.57-2.1,7.17-4.18a86.53,86.53,0,0,0,7.71-4.59c.12-.09.05-.33-.11-.26a64.54,64.54,0,0,0-7.55,4.17c-2.43,1.43-4.83,2.89-7.22,4.37,0-3.44,0-6.88,0-10.31a82.27,82.27,0,0,0,11.27-5.73c.12-.07,0-.3-.11-.24a83.1,83.1,0,0,0-11.16,5.5c0-1.79,0-3.57,0-5.36-.1-9.21-.12-18.43-.35-27.64,2.34-1.19,4.76-2.23,7.1-3.42.15-.08,0-.34-.12-.28-2.38.93-4.67,2-7,3-.13-4.75-.31-9.5-.6-14.24a.12.12,0,1,0-.24,0c-.33,8.82-.3,17.65-.19,26.48-2.43-1.94-5-3.65-7.49-5.53-.09-.07-.19.09-.09.16,2.58,2,5,4.14,7.59,6.1,0,.5,0,1,0,1.5-2.64-1.2-5.31-2.32-8-3.46-.21-.09-.39.21-.18.31,2.71,1.3,5.41,2.62,8.16,3.85q.09,6.56.19,13.12c.1,7.63.27,15.27.43,22.91q-7.45-3.78-15-7.34c-.19-.09-.36.18-.17.29a157.49,157.49,0,0,0,15.2,7.63c.14,6.35.27,12.69.35,19a.3.3,0,0,0,.6,0c-.09-8.09-.1-16.19-.13-24.28,2.63-.65,12.52-4.89,14.88-6.05C190.25,285.07,190.08,284.65,189.82,284.75Z" style="fill:#37474f"></path><path d="M371.16,303c-.92.93-11.72,1.34-15.65,1.34S340.79,304,339.86,303s12.15-72.7,15.65-72.7S372.09,302.12,371.16,303Z" style="fill:#455a64"></path><path d="M371.38,284.75c-2.67,1-12.55,5-14.68,6.22,0-.45,0-.9,0-1.35,2.38-1.4,4.78-2.79,7.17-4.18a86.53,86.53,0,0,0,7.71-4.59c.12-.09.05-.33-.11-.26a64.41,64.41,0,0,0-7.54,4.17q-3.65,2.14-7.23,4.37c0-3.44,0-6.88-.05-10.31a81.7,81.7,0,0,0,11.27-5.73c.12-.07,0-.3-.1-.24a82.63,82.63,0,0,0-11.17,5.5c0-1.79,0-3.57,0-5.36-.1-9.21-.11-18.43-.35-27.64,2.34-1.19,4.76-2.23,7.1-3.42.15-.08,0-.34-.12-.28-2.38.93-4.66,2-7,3q-.18-7.12-.59-14.24a.13.13,0,0,0-.25,0c-.33,8.82-.3,17.65-.19,26.48-2.43-1.94-5-3.65-7.49-5.53-.09-.07-.19.09-.09.16,2.58,2,5,4.14,7.59,6.1,0,.5,0,1,0,1.5-2.64-1.2-5.31-2.32-8-3.46-.2-.09-.39.21-.18.31,2.71,1.3,5.41,2.62,8.16,3.85q.09,6.56.19,13.12c.1,7.63.27,15.27.43,22.91q-7.46-3.78-15-7.34a.17.17,0,0,0-.16.29,156.18,156.18,0,0,0,15.19,7.63c.14,6.35.27,12.69.35,19a.3.3,0,0,0,.6,0c-.09-8.09-.1-16.19-.12-24.28,2.62-.65,12.52-4.89,14.87-6.05C371.81,285.07,371.64,284.65,371.38,284.75Z" style="fill:#37474f"></path><path d="M71.15,304.85c-.8.8-10.06,1.15-13.43,1.15s-12.64-.35-13.44-1.15,10.43-62.39,13.44-62.39S72,304.06,71.15,304.85Z" style="fill:#455a64"></path><path d="M71.34,289.16c-2.29.87-10.78,4.32-12.61,5.33v-1.16l6.15-3.59a72.06,72.06,0,0,0,6.62-3.93c.1-.07,0-.28-.09-.22a53.8,53.8,0,0,0-6.48,3.58c-2.09,1.22-4.15,2.48-6.2,3.75,0-2.95,0-5.91,0-8.86a69.68,69.68,0,0,0,9.67-4.91c.1-.06,0-.26-.09-.21a69.26,69.26,0,0,0-9.58,4.73c0-1.54,0-3.07,0-4.61-.08-7.9-.1-15.81-.3-23.72,2-1,4.08-1.91,6.09-2.93.14-.07,0-.3-.1-.24-2,.79-4,1.74-6,2.62-.11-4.08-.27-8.16-.52-12.23a.11.11,0,0,0-.21,0c-.28,7.57-.26,15.15-.16,22.73-2.08-1.66-4.31-3.13-6.43-4.75-.08-.06-.16.08-.08.14,2.22,1.69,4.29,3.56,6.52,5.24,0,.43,0,.85,0,1.28-2.26-1-4.55-2-6.83-3-.18-.08-.34.18-.16.27,2.33,1.11,4.65,2.25,7,3.3q.09,5.64.17,11.26c.08,6.55.23,13.11.37,19.66q-6.41-3.24-12.89-6.29c-.16-.08-.31.15-.14.24a133.55,133.55,0,0,0,13,6.56c.11,5.44.23,10.88.3,16.33a.26.26,0,0,0,.51,0c-.08-6.94-.09-13.89-.11-20.83a130.69,130.69,0,0,0,12.77-5.19C71.7,289.43,71.56,289.07,71.34,289.16Z" style="fill:#37474f"></path><path d="M326.44,306.58c.67.67,8.47,1,11.31,1s10.64-.3,11.31-1S340.28,254,337.75,254,325.77,305.91,326.44,306.58Z" style="fill:#37474f"></path><path d="M326.28,293.36c1.93.74,9.07,3.65,10.61,4.5,0-.33,0-.65,0-1l-5.18-3a61.12,61.12,0,0,1-5.58-3.31c-.08-.07,0-.24.08-.19a46,46,0,0,1,5.46,3c1.75,1,3.49,2.09,5.22,3.16,0-2.48,0-5,0-7.46a58.67,58.67,0,0,1-8.14-4.13c-.09-.06,0-.22.07-.18a59.83,59.83,0,0,1,8.07,4l0-3.88c.07-6.65.09-13.32.26-20-1.7-.86-3.44-1.61-5.14-2.47-.11-.06,0-.25.09-.2,1.72.67,3.37,1.46,5.06,2.2.09-3.43.22-6.86.43-10.29a.09.09,0,0,1,.18,0c.23,6.37.22,12.75.14,19.14,1.75-1.4,3.62-2.64,5.41-4,.06,0,.13.06.06.11-1.86,1.42-3.61,3-5.48,4.42,0,.36,0,.72,0,1.08,1.91-.87,3.84-1.68,5.76-2.51.15-.06.28.16.13.23-2,.94-3.91,1.9-5.89,2.78q-.07,4.74-.14,9.48c-.07,5.52-.2,11-.31,16.56q5.38-2.73,10.85-5.3a.12.12,0,0,1,.12.21,112.57,112.57,0,0,1-11,5.51q-.15,6.89-.25,13.76a.22.22,0,0,1-.44,0c.07-5.85.08-11.7.09-17.55a105.88,105.88,0,0,1-10.74-4.37C326,293.6,326.09,293.29,326.28,293.36Z" style="fill:#455a64"></path><path d="M67.66,306.58c.67.67,8.48,1,11.32,1s10.64-.3,11.31-1S81.51,254,79,254,67,305.91,67.66,306.58Z" style="fill:#37474f"></path><path d="M67.51,293.36c1.93.74,9.07,3.65,10.61,4.5,0-.33,0-.65,0-1l-5.18-3a61.12,61.12,0,0,1-5.58-3.31c-.08-.07,0-.24.08-.19a45.15,45.15,0,0,1,5.45,3c1.76,1,3.5,2.09,5.23,3.16q0-3.72,0-7.46A58.12,58.12,0,0,1,70,284.94c-.09-.06,0-.22.07-.18a59.83,59.83,0,0,1,8.07,4c0-1.29,0-2.58,0-3.88.07-6.65.08-13.32.25-20-1.69-.86-3.44-1.61-5.13-2.47-.11-.06,0-.25.09-.2,1.72.67,3.37,1.46,5.06,2.2.09-3.43.22-6.86.43-10.29a.09.09,0,1,1,.17,0c.24,6.37.22,12.75.14,19.14,1.76-1.4,3.63-2.64,5.41-4,.07,0,.14.06.07.11-1.87,1.42-3.61,3-5.48,4.42,0,.36,0,.72,0,1.08,1.9-.87,3.83-1.68,5.76-2.51.15-.06.28.16.13.23-2,.94-3.91,1.9-5.9,2.78q-.06,4.74-.14,9.48c-.07,5.52-.19,11-.31,16.56,3.59-1.82,7.22-3.59,10.86-5.3a.12.12,0,0,1,.12.21,112.57,112.57,0,0,1-11,5.51c-.1,4.59-.2,9.17-.26,13.76a.22.22,0,0,1-.43,0c.06-5.85.07-11.7.09-17.55a106,106,0,0,1-10.75-4.37C67.2,293.6,67.32,293.29,67.51,293.36Z" style="fill:#455a64"></path><path d="M246.76,304c-.86.85-10.82,1.23-14.45,1.23s-13.59-.38-14.44-1.23,11.21-67.1,14.44-67.1S247.61,303.17,246.76,304Z" style="fill:#37474f"></path><path d="M247,287.15c-2.46.94-11.58,4.65-13.55,5.73,0-.41,0-.83,0-1.24,2.2-1.3,4.41-2.58,6.62-3.86a80.85,80.85,0,0,0,7.12-4.23c.1-.08,0-.3-.11-.24a59.06,59.06,0,0,0-7,3.85c-2.24,1.31-4.46,2.67-6.67,4,0-3.17,0-6.35,0-9.52a76.8,76.8,0,0,0,10.39-5.28c.12-.07,0-.28-.09-.23a76.9,76.9,0,0,0-10.3,5.08c0-1.65,0-3.3,0-4.95-.09-8.5-.11-17-.32-25.51,2.16-1.09,4.39-2.05,6.55-3.15.14-.07,0-.32-.11-.26-2.19.86-4.31,1.87-6.46,2.82-.12-4.39-.28-8.77-.55-13.15a.12.12,0,0,0-.23,0c-.3,8.14-.28,16.29-.17,24.44-2.24-1.79-4.63-3.37-6.91-5.1-.09-.07-.18.08-.09.15,2.38,1.81,4.61,3.82,7,5.63,0,.46,0,.92,0,1.38-2.43-1.11-4.89-2.14-7.35-3.2-.19-.08-.36.2-.17.29,2.51,1.2,5,2.42,7.53,3.55.06,4,.13,8.08.18,12.11.09,7,.25,14.1.4,21.14q-6.88-3.48-13.86-6.77c-.18-.08-.33.17-.16.27a147.12,147.12,0,0,0,14,7.05c.12,5.85.24,11.71.32,17.56a.28.28,0,0,0,.55,0c-.08-7.47-.09-14.94-.11-22.4,2.42-.6,11.55-4.51,13.72-5.58C247.35,287.44,247.2,287.06,247,287.15Z" style="fill:#455a64"></path><path d="M455.28,304c-.86.85-10.82,1.23-14.45,1.23s-13.59-.38-14.44-1.23,11.21-67.1,14.44-67.1S456.13,303.17,455.28,304Z" style="fill:#37474f"></path><path d="M455.48,287.15c-2.47.94-11.59,4.65-13.56,5.73v-1.24c2.2-1.3,4.41-2.58,6.61-3.86a79.42,79.42,0,0,0,7.12-4.23c.11-.08.05-.3-.1-.24a59.06,59.06,0,0,0-7,3.85c-2.25,1.31-4.46,2.67-6.67,4,0-3.17,0-6.35,0-9.52a76.8,76.8,0,0,0,10.39-5.28c.11-.07,0-.28-.09-.23a77,77,0,0,0-10.31,5.08c0-1.65,0-3.3,0-4.95-.09-8.5-.11-17-.33-25.51,2.17-1.09,4.39-2.05,6.56-3.15.14-.07,0-.32-.11-.26-2.2.86-4.31,1.87-6.46,2.82-.12-4.39-.29-8.77-.56-13.15a.11.11,0,0,0-.22,0c-.3,8.14-.28,16.29-.18,24.44-2.24-1.79-4.63-3.37-6.91-5.1-.08-.07-.17.08-.08.15,2.38,1.81,4.61,3.82,7,5.63,0,.46,0,.92,0,1.38-2.43-1.11-4.9-2.14-7.35-3.2-.19-.08-.36.2-.17.29,2.5,1.2,5,2.42,7.53,3.55l.18,12.11c.09,7,.24,14.1.39,21.14-4.58-2.32-9.21-4.58-13.85-6.77-.18-.08-.34.17-.16.27a145.94,145.94,0,0,0,14,7.05c.12,5.85.24,11.71.32,17.56a.28.28,0,0,0,.55,0c-.08-7.47-.1-14.94-.12-22.4,2.42-.6,11.56-4.51,13.73-5.58C455.87,287.44,455.71,287.06,455.48,287.15Z" style="fill:#455a64"></path><path d="M200.22,307.57c.6.6,7.57.87,10.1.87s9.5-.27,10.1-.87-7.84-46.89-10.1-46.89S199.63,307,200.22,307.57Z" style="fill:#455a64"></path><path d="M200.08,295.78c1.73.65,8.1,3.25,9.48,4v-.87c-1.54-.91-3.08-1.8-4.62-2.7a53.08,53.08,0,0,1-5-3c-.07-.05,0-.21.07-.17a42,42,0,0,1,4.87,2.69c1.57.92,3.12,1.87,4.66,2.82l0-6.65a53.92,53.92,0,0,1-7.27-3.69c-.07-.05,0-.2.07-.16a53.43,53.43,0,0,1,7.2,3.55c0-1.15,0-2.31,0-3.46.06-5.94.07-11.89.22-17.83-1.51-.76-3.07-1.43-4.58-2.2-.09-.05,0-.22.08-.18,1.53.6,3,1.31,4.51,2,.09-3.07.2-6.13.39-9.19a.08.08,0,0,1,.16,0c.21,5.69.19,11.38.12,17.08,1.57-1.25,3.24-2.36,4.83-3.57.06,0,.12.06.06.11-1.67,1.26-3.22,2.67-4.89,3.93,0,.32,0,.65,0,1,1.7-.78,3.42-1.5,5.14-2.24.13-.05.25.14.12.2-1.75.84-3.49,1.7-5.26,2.49,0,2.82-.09,5.64-.13,8.46-.06,4.93-.17,9.85-.28,14.77q4.82-2.43,9.69-4.73c.12-.05.23.12.11.19a100.78,100.78,0,0,1-9.8,4.92c-.09,4.1-.18,8.19-.23,12.28a.19.19,0,0,1-.38,0c.05-5.22.06-10.44.08-15.66a94.51,94.51,0,0,1-9.6-3.9C199.81,296,199.92,295.71,200.08,295.78Z" style="fill:#37474f"></path><path d="M399.16,307.57c.6.6,7.56.87,10.09.87s9.5-.27,10.1-.87-7.84-46.89-10.1-46.89S398.56,307,399.16,307.57Z" style="fill:#455a64"></path><path d="M399,295.78c1.72.65,8.09,3.25,9.47,4v-.87c-1.53-.91-3.08-1.8-4.62-2.7a52.92,52.92,0,0,1-5-3c-.08-.05,0-.21.07-.17a41.09,41.09,0,0,1,4.86,2.69c1.57.92,3.12,1.87,4.67,2.82q0-3.32,0-6.65a53.8,53.8,0,0,1-7.26-3.69c-.08-.05,0-.2.06-.16a53,53,0,0,1,7.21,3.55c0-1.15,0-2.31,0-3.46.06-5.94.08-11.89.23-17.83-1.52-.76-3.07-1.43-4.58-2.2-.1-.05,0-.22.07-.18,1.54.6,3,1.31,4.52,2,.08-3.07.2-6.13.38-9.19,0-.1.16-.1.16,0,.21,5.69.2,11.38.13,17.08,1.56-1.25,3.23-2.36,4.82-3.57a.06.06,0,0,1,.06.11c-1.66,1.26-3.22,2.67-4.89,3.93,0,.32,0,.65,0,1,1.69-.78,3.42-1.5,5.13-2.24.14-.05.26.14.12.2-1.75.84-3.49,1.7-5.26,2.49,0,2.82-.09,5.64-.12,8.46-.07,4.93-.18,9.85-.28,14.77q4.8-2.43,9.68-4.73c.13-.05.23.12.11.19a99.66,99.66,0,0,1-9.8,4.92q-.13,6.15-.22,12.28a.2.2,0,0,1-.39,0c.06-5.22.07-10.44.08-15.66a93.41,93.41,0,0,1-9.59-3.9C398.74,296,398.85,295.71,399,295.78Z" style="fill:#37474f"></path></g><g id="freepik--Floor--inject-15"><polygon points="37.28 315.7 90.46 315.46 143.64 315.37 250 315.2 356.36 315.37 409.54 315.46 462.71 315.7 409.54 315.95 356.36 316.04 250 316.2 143.64 316.03 90.46 315.95 37.28 315.7" style="fill:#263238"></polygon></g></svg>