<svg xmlns="http://www.w3.org/2000/svg" viewBox="0 0 500 500"><g id="freepik--Floor--inject-60"><path id="freepik--floor--inject-60" d="M77.66,273.4c-95.18,48.8-95.17,127.91,0,176.71s249.49,48.79,344.67,0,95.17-127.91,0-176.71S172.84,224.6,77.66,273.4Z" style="fill:#f5f5f5"></path></g><g id="freepik--Window--inject-60"><g id="freepik--window--inject-60"><g id="freepik--window--inject-60"><polygon points="72.81 204.53 74.96 204.68 171.34 148.99 170.27 148.21 72.81 204.53" style="fill:#fafafa"></polygon><polygon points="170.27 148.21 74.96 203.29 74.96 114.35 170.27 59.27 170.27 148.21" style="fill:#fff"></polygon><path d="M173.49,54.94,72.81,113.11V208.4l100.68-58.17ZM171.34,149,75,204.68V114.35l96.38-55.69Z" style="fill:#f0f0f0"></path><polygon points="171.34 148.99 170.27 148.21 170.27 59.27 171.34 58.66 171.34 148.99" style="fill:#e0e0e0"></polygon><polygon points="173.49 54.94 172.42 54.32 71.73 112.49 72.81 113.11 173.49 54.94" style="fill:#fafafa"></polygon><polygon points="71.73 112.49 72.81 113.11 72.81 208.4 71.73 207.78 71.73 112.49" style="fill:#e0e0e0"></polygon><polygon points="74.96 158.71 170.27 103.61 171.34 104.25 74.96 159.94 74.96 158.71" style="fill:#fafafa"></polygon><polygon points="171.34 104.25 171.34 106.66 74.96 162.34 74.96 159.94 171.34 104.25" style="fill:#f0f0f0"></polygon></g><g id="freepik--Blinds--inject-60"><polygon points="74.96 116.14 170.27 61.08 170.83 63.59 74.96 119.01 74.96 116.14" style="fill:#f0f0f0"></polygon><polygon points="74.96 116.14 74.96 117.3 170.49 62.08 170.27 61.08 74.96 116.14" style="fill:#e0e0e0"></polygon><polygon points="74.96 120.16 170.27 65.09 170.83 67.61 74.96 123.03 74.96 120.16" style="fill:#f0f0f0"></polygon><polygon points="74.96 120.16 74.96 121.31 170.49 66.09 170.27 65.09 74.96 120.16" style="fill:#e0e0e0"></polygon><polygon points="74.96 124.17 170.27 69.1 170.83 71.62 74.96 127.04 74.96 124.17" style="fill:#f0f0f0"></polygon><polygon points="74.96 124.17 74.96 125.32 170.49 70.1 170.27 69.1 74.96 124.17" style="fill:#e0e0e0"></polygon><polygon points="74.96 128.18 170.27 73.11 170.83 75.63 74.96 131.05 74.96 128.18" style="fill:#f0f0f0"></polygon><polygon points="74.96 128.18 74.96 129.33 170.49 74.11 170.27 73.11 74.96 128.18" style="fill:#e0e0e0"></polygon><polygon points="74.96 132.19 170.27 77.12 170.83 79.64 74.96 135.06 74.96 132.19" style="fill:#f0f0f0"></polygon><polygon points="74.96 132.19 74.96 133.34 170.49 78.12 170.27 77.12 74.96 132.19" style="fill:#e0e0e0"></polygon><polygon points="74.96 136.2 170.27 81.13 170.83 83.65 74.96 139.07 74.96 136.2" style="fill:#f0f0f0"></polygon><polygon points="74.96 136.2 74.96 137.36 170.49 82.13 170.27 81.13 74.96 136.2" style="fill:#e0e0e0"></polygon><polygon points="74.96 140.22 170.27 85.15 170.83 87.67 74.96 143.08 74.96 140.22" style="fill:#f0f0f0"></polygon><polygon points="74.96 140.22 74.96 141.37 170.49 86.15 170.27 85.15 74.96 140.22" style="fill:#e0e0e0"></polygon><polygon points="74.96 144.23 170.27 89.16 170.83 91.68 74.96 147.09 74.96 144.23" style="fill:#f0f0f0"></polygon><polygon points="74.96 144.23 74.96 145.38 170.49 90.16 170.27 89.16 74.96 144.23" style="fill:#e0e0e0"></polygon><polygon points="74.96 148.24 170.27 93.17 170.83 95.69 74.96 151.11 74.96 148.24" style="fill:#f0f0f0"></polygon><polygon points="74.96 148.24 74.96 149.39 170.49 94.17 170.27 93.17 74.96 148.24" style="fill:#e0e0e0"></polygon><polygon points="74.96 152.25 170.27 97.18 170.83 99.7 74.96 155.12 74.96 152.25" style="fill:#f0f0f0"></polygon><polygon points="74.96 152.25 74.96 153.4 170.49 98.18 170.27 97.18 74.96 152.25" style="fill:#e0e0e0"></polygon></g></g></g><g id="freepik--Board--inject-60"><g id="freepik--board--inject-60"><g id="freepik--board--inject-60"><path d="M346.93,34.47l-.88.51V143.43c0,2.87,1.74,6.2,3.89,7.44l119.62,69.06a2.55,2.55,0,0,0,2.44.26l1-.58a3.48,3.48,0,0,0,1.33-3.14V108Z" style="fill:#e0e0e0"></path><path d="M469.56,219.93,349.94,150.87c-2.15-1.24-3.89-4.57-3.89-7.44V35l127.41,73.56V217C473.46,219.85,471.71,221.17,469.56,219.93Z" style="fill:#fafafa"></path><path d="M347.05,36.71l125.41,72.41V217c0,1.11-.36,2.41-1.35,2.41a2.16,2.16,0,0,1-1.05-.33L350.44,150c-1.84-1.07-3.39-4.08-3.39-6.58V36.71m-1-1.73V143.43c0,2.87,1.74,6.2,3.89,7.44l119.62,69.06a3.18,3.18,0,0,0,1.55.46c1.38,0,2.35-1.27,2.35-3.41V108.54L346.05,35Z" style="fill:#e0e0e0"></path></g><g id="freepik--sticky-notes--inject-60"><g id="freepik--notes-shadows--inject-60" style="opacity:0.15"><polygon points="463.63 158.01 454.92 152.99 454.92 139.57 463.63 144.6 463.63 158.01"></polygon><polygon points="464.58 176.8 455.87 171.77 455.87 158.36 464.58 163.39 464.58 176.8"></polygon></g><g id="freepik--Notes--inject-60"><g id="freepik--Note--inject-60"><polygon points="454.49 171.42 463.5 176.55 464.3 165.66 455.25 160.43 454.49 171.42" style="fill:#f0f0f0"></polygon><polygon points="455.25 160.43 464.3 165.66 464.31 163.98 455.25 158.75 455.25 160.43" style="fill:#e0e0e0"></polygon><polygon points="455.25 160.43 464.3 165.66 464.31 163.98 455.25 158.75 455.25 160.43" style="fill:#e6e6e6;opacity:0.1"></polygon></g><g id="freepik--note--inject-60"><path d="M453.74,152.54l6,3.36c.67.38,1.11-.7,1.11-1.36.67.43,2.05.7,2.12-.16l.56-7.6-9.06-5.23Z" style="fill:#fff"></path><polygon points="454.49 141.55 463.55 146.78 463.55 145.1 454.49 139.87 454.49 141.55" style="fill:#f0f0f0"></polygon><polygon points="462.7 154.84 460.23 155.93 461 153.91 462.7 154.84" style="fill:#f0f0f0"></polygon></g></g></g><g id="freepik--Chart--inject-60"><polygon points="449.53 163.85 356.74 110.21 356.74 47.81 449.53 101.44 449.53 163.85" style="opacity:0.15"></polygon><path d="M447.28,163.14l.25-.14a1.59,1.59,0,0,0,.73-1.26V103.05a1.64,1.64,0,0,0-.73-1.27L356.72,49.22a1.63,1.63,0,0,0-1.46,0l-.25.15a1.59,1.59,0,0,0-.73,1.26v58.69a1.59,1.59,0,0,0,.73,1.26l90.81,52.56A1.57,1.57,0,0,0,447.28,163.14Z" style="fill:#f0f0f0"></path><path d="M448.26,103.05v58.69a1.61,1.61,0,0,1-.73,1.26l-.25.15a1.65,1.65,0,0,1-1.29.07c.33.09.57-.09.57-.5V104a1.47,1.47,0,0,0-.22-.71l1.71-1A1.52,1.52,0,0,1,448.26,103.05Z" style="fill:#e0e0e0"></path><path d="M355,50.21l90.81,52.56a1.59,1.59,0,0,1,.73,1.26v58.69c0,.47-.32.66-.73.42L355,110.58a1.59,1.59,0,0,1-.73-1.26V50.63C354.28,50.17,354.6,50,355,50.21Z" style="fill:#fff"></path><path d="M438.93,151.77h0a2.26,2.26,0,0,1-1.08-1.72.77.77,0,0,1,.11-.42l-6.72-13.31c-.17.26-.55.3-1,.05a2.23,2.23,0,0,1-1.08-1.71.62.62,0,0,1,.22-.53l-6.94-9.24a.78.78,0,0,1-.86-.06,2.26,2.26,0,0,1-1.08-1.72.93.93,0,0,1,0-.24L414,108c-.12.41-.54.51-1.05.23a2.26,2.26,0,0,1-1.08-1.72A.7.7,0,0,1,412,106l-6.73-7.27c-.17.26-.54.29-1,0a2.3,2.3,0,0,1-.77-.75l-7.12,3.06a1.9,1.9,0,0,1,.31.95c0,.6-.49.81-1.08.47a2.26,2.26,0,0,1-1.08-1.72.88.88,0,0,1,0-.24L388,95.14c-.12.4-.54.51-1.05.21a2.23,2.23,0,0,1-1.08-1.71.55.55,0,0,1,.41-.61h0L379,79.61a.92.92,0,0,1-.68-.15,2.23,2.23,0,0,1-1.08-1.71h0L370.73,74c0,.6-.49.81-1.09.46a2.23,2.23,0,0,1-1.08-1.71.57.57,0,0,1,.4-.62l-7.27-13.36a1,1,0,0,1-.71-.15v52.15l77.95,45Z" style="fill:#f0f0f0"></path><path d="M368.6,72a.81.81,0,0,0-.3.69,2.47,2.47,0,0,0,1.21,1.92,1.31,1.31,0,0,0,.62.21.91.91,0,0,0,.41-.06.74.74,0,0,0,.38-.4L377,77.89a2.51,2.51,0,0,0,1.2,1.76,1.44,1.44,0,0,0,.61.21h0l7.12,13.08a.81.81,0,0,0-.3.68,2.49,2.49,0,0,0,1.22,1.93,1.41,1.41,0,0,0,.61.2.85.85,0,0,0,.42-.06.69.69,0,0,0,.22-.16l6.2,5.15s0,.08,0,.12a2.5,2.5,0,0,0,1.21,1.93,1.49,1.49,0,0,0,.62.2,1,1,0,0,0,.42-.06.79.79,0,0,0,.45-.78,1.94,1.94,0,0,0-.24-.87l6.69-2.87a2.5,2.5,0,0,0,.72.66,1.41,1.41,0,0,0,.62.2.91.91,0,0,0,.41-.06s0,0,0,0l6.44,7a1,1,0,0,0-.07.35,2.48,2.48,0,0,0,1.22,1.92,1.31,1.31,0,0,0,.62.21.93.93,0,0,0,.41-.06l.09-.06,6.35,14.42a.76.76,0,0,0,0,.21,2.5,2.5,0,0,0,1.22,1.93,1.59,1.59,0,0,0,.61.21,1.27,1.27,0,0,0,.28,0l6.69,8.92a.94.94,0,0,0-.14.52,2.47,2.47,0,0,0,1.22,1.92,1.31,1.31,0,0,0,.61.21,1,1,0,0,0,.38,0l6.53,12.92a.93.93,0,0,0-.08.39,2.5,2.5,0,0,0,1.21,1.93,1.49,1.49,0,0,0,.62.2,1,1,0,0,0,.42-.06.78.78,0,0,0,.45-.78,2.48,2.48,0,0,0-1.22-1.92,1.17,1.17,0,0,0-1-.15h0l-6.5-12.87a1,1,0,0,0,.11-.46,2.5,2.5,0,0,0-1.22-1.93,1.19,1.19,0,0,0-.94-.16l-6.68-8.9a.89.89,0,0,0,.18-.56,2.47,2.47,0,0,0-1.22-1.92,1.13,1.13,0,0,0-1-.14.42.42,0,0,0-.14.09L414.23,108a1,1,0,0,0,0-.31,2.5,2.5,0,0,0-1.21-1.93,1.21,1.21,0,0,0-1-.14l-.08,0-6.41-6.93a1,1,0,0,0,.08-.41,2.47,2.47,0,0,0-1.21-1.92,1.17,1.17,0,0,0-1-.15.79.79,0,0,0-.45.78,2,2,0,0,0,.22.85l-6.69,2.87a2.54,2.54,0,0,0-.71-.64,1.19,1.19,0,0,0-1-.14.63.63,0,0,0-.25.2l-6.18-5.13a1,1,0,0,0,0-.18A2.5,2.5,0,0,0,387.09,93a1.37,1.37,0,0,0-.69-.21l-7.11-13a.8.8,0,0,0,.36-.72,2.5,2.5,0,0,0-1.22-1.93,1.13,1.13,0,0,0-1-.14.69.69,0,0,0-.39.43l-6-3.48a2.53,2.53,0,0,0-1.2-1.81,1.39,1.39,0,0,0-.7-.2l-7-12.82-.6,0Zm69.49,78a.4.4,0,0,1,.18-.39l.15,0a.84.84,0,0,1,.35.13,2,2,0,0,1,1,1.5c0,.2-.06.35-.18.4a.6.6,0,0,1-.5-.11A2,2,0,0,1,438.09,150.06Zm-8.66-15.39a.4.4,0,0,1,.19-.4.63.63,0,0,1,.5.1,2,2,0,0,1,.94,1.51.57.57,0,0,1,0,.24h0a.21.21,0,0,0-.08.11s0,0-.05,0a.59.59,0,0,1-.5-.1A2,2,0,0,1,429.43,134.67Zm-8.66-11.55a.39.39,0,0,1,.19-.39.59.59,0,0,1,.5.1,2,2,0,0,1,1,1.5.48.48,0,0,1-.11.34h0a.1.1,0,0,0-.06,0,.6.6,0,0,1-.49-.1A2,2,0,0,1,420.77,123.12Zm-8.65-16.64c0-.2.06-.35.18-.4a.6.6,0,0,1,.5.11,2,2,0,0,1,.95,1.5s0,.07,0,.11a.18.18,0,0,0-.06.17.34.34,0,0,1-.12.12.58.58,0,0,1-.49-.11A2,2,0,0,1,412.12,106.48Zm-8.66-9.36a.4.4,0,0,1,.18-.39.37.37,0,0,1,.15,0,.84.84,0,0,1,.35.13,2,2,0,0,1,.95,1.5.75.75,0,0,1,0,.24h0a.2.2,0,0,0-.08.12l0,0a.6.6,0,0,1-.5-.11A2,2,0,0,1,403.46,97.12Zm-8.66,3.72a.42.42,0,0,1,.18-.4l.15,0a.84.84,0,0,1,.35.13,1.91,1.91,0,0,1,.6.57.42.42,0,0,0,0,.1l.07.06a1.6,1.6,0,0,1,.24.77c0,.2-.06.35-.18.4a.6.6,0,0,1-.5-.11A2,2,0,0,1,394.8,100.84Zm-8.66-7.18a.39.39,0,0,1,.19-.39.59.59,0,0,1,.5.1,2,2,0,0,1,.94,1.5.45.45,0,0,1,0,.12.24.24,0,0,0-.05.16.28.28,0,0,1-.12.12.63.63,0,0,1-.5-.1A2,2,0,0,1,386.14,93.66Zm-8.66-15.89a.4.4,0,0,1,.19-.4.63.63,0,0,1,.5.1,2,2,0,0,1,.95,1.51.39.39,0,0,1-.19.39.59.59,0,0,1-.5-.1A2,2,0,0,1,377.48,77.77Zm-8.65-5a.42.42,0,0,1,.18-.4.63.63,0,0,1,.5.1,2,2,0,0,1,.94,1.42.21.21,0,0,0,0,.19.34.34,0,0,1-.17.29.56.56,0,0,1-.5-.1A2,2,0,0,1,368.83,72.77Z" style="fill:#e0e0e0"></path><path d="M361.33,61.5a.24.24,0,0,0,.28-.23V59.06l2.31,1.08a.28.28,0,0,0,.38-.1.26.26,0,0,0-.14-.34l-2.71-1.27a.39.39,0,0,0-.28,0,.23.23,0,0,0-.13.21v2.6A.29.29,0,0,0,361.33,61.5Z" style="fill:#e0e0e0"></path></g><g id="freepik--chart--inject-60"><polygon points="449.53 201.55 394.91 169.97 394.91 137.48 449.53 169.05 449.53 201.55" style="opacity:0.15"></polygon><path d="M447.28,200.85l.25-.15a1.59,1.59,0,0,0,.73-1.26V170.66a1.64,1.64,0,0,0-.73-1.27l-52.64-30.5a1.63,1.63,0,0,0-1.46,0l-.25.15a1.59,1.59,0,0,0-.73,1.26v28.78a1.61,1.61,0,0,0,.73,1.27l52.64,30.5A1.63,1.63,0,0,0,447.28,200.85Z" style="fill:#f0f0f0"></path><path d="M448.26,170.66v28.78a1.61,1.61,0,0,1-.73,1.27l-.25.14a1.61,1.61,0,0,1-1.29.07c.33.1.57-.09.57-.49V171.64a1.47,1.47,0,0,0-.22-.71l1.71-1A1.52,1.52,0,0,1,448.26,170.66Z" style="fill:#e0e0e0"></path><path d="M393.18,139.88l52.64,30.5a1.59,1.59,0,0,1,.73,1.26v28.79c0,.46-.32.65-.73.42l-52.64-30.5a1.61,1.61,0,0,1-.73-1.27V140.3C392.45,139.84,392.77,139.65,393.18,139.88Z" style="fill:#fff"></path></g><g id="freepik--Sheet--inject-60"><polygon points="469.23 213.73 451.36 203.41 451.36 173.36 469.23 183.68 469.23 213.73" style="opacity:0.15"></polygon><path d="M467.93,214l-17-9.8a1,1,0,0,1-.45-.78v-29c0-.29.2-.41.45-.26l17,9.8a1,1,0,0,1,.45.77v29C468.38,214,468.17,214.15,467.93,214Z" style="fill:#fff"></path><path d="M466.21,188.35l-13.54-7.81a1,1,0,0,1-.5-.7c0-.23.23-.28.5-.12l13.54,7.81a1,1,0,0,1,.5.7C466.71,188.46,466.49,188.51,466.21,188.35Z" style="fill:#e0e0e0"></path><path d="M466.21,190.49l-13.54-7.81a1,1,0,0,1-.5-.7c0-.23.23-.28.5-.12l13.54,7.81a1,1,0,0,1,.5.7C466.71,190.6,466.49,190.65,466.21,190.49Z" style="fill:#e0e0e0"></path><path d="M466.21,194.94l-13.54-7.82a1,1,0,0,1-.5-.7c0-.23.23-.28.5-.12l13.54,7.82a1,1,0,0,1,.5.7C466.71,195.05,466.49,195.1,466.21,194.94Z" style="fill:#e0e0e0"></path><path d="M466.21,197.08l-13.54-7.82a1,1,0,0,1-.5-.7c0-.23.23-.28.5-.12l13.54,7.82a1,1,0,0,1,.5.7C466.71,197.19,466.49,197.24,466.21,197.08Z" style="fill:#e0e0e0"></path><path d="M466.21,203.66l-13.54-7.81a1,1,0,0,1-.5-.7c0-.23.23-.28.5-.12l13.54,7.81a1,1,0,0,1,.5.7C466.71,203.77,466.49,203.82,466.21,203.66Z" style="fill:#e0e0e0"></path><path d="M466.21,201.52l-13.54-7.81a1,1,0,0,1-.5-.7c0-.23.23-.28.5-.12l13.54,7.81a1,1,0,0,1,.5.7C466.71,201.63,466.49,201.68,466.21,201.52Z" style="fill:#e0e0e0"></path><g id="freepik--Pushpin--inject-60"><path d="M458.45,181.81l0,0,.06,0s.07,0,.11,0l.34-.2c.14-.08.31-.17.48-.28L460,181c.05,0,0-.21-.11-.18l-.56.3-.49.27-.34.2s-.09,0-.08.08a.12.12,0,0,0,0,.08Z" style="fill:#e0e0e0"></path><path d="M458.1,182.06c.27.45.7.7,1.15.46l0,0h0a.52.52,0,0,0,.19-.44,1.52,1.52,0,0,0-.69-1.19.5.5,0,0,0-.46-.06h0l0,0A.84.84,0,0,0,458.1,182.06Z" style="fill:#e0e0e0"></path><g style="opacity:0.15"><path d="M458.1,182.06c.27.45.7.7,1.15.46l0,0h0a.52.52,0,0,0,.19-.44,1.52,1.52,0,0,0-.69-1.19.5.5,0,0,0-.46-.06h0l0,0A.84.84,0,0,0,458.1,182.06Z"></path></g><path d="M457.55,183l-.51-.87a5.24,5.24,0,0,0,1.08-.74v0l0,0h0a.28.28,0,0,1,.34,0,1,1,0,0,1,.45.77.31.31,0,0,1-.13.29h0l-.09,0A4.64,4.64,0,0,0,457.55,183Z" style="fill:#e0e0e0"></path><path d="M456.6,182.26a.54.54,0,0,1,.54-.54.41.41,0,0,1,.19,0h0l.09,0a1.19,1.19,0,0,1,.54.94.68.68,0,0,1,0,.14.53.53,0,0,1-.52.44.54.54,0,0,1-.54-.54.11.11,0,0,1,0,0A.53.53,0,0,1,456.6,182.26Z" style="fill:#e0e0e0"></path><g style="opacity:0.15"><path d="M456.6,182.26a.54.54,0,0,1,.54-.54.41.41,0,0,1,.19,0h0l.09,0a1.19,1.19,0,0,1,.54.94.68.68,0,0,1,0,.14.53.53,0,0,1-.52.44.54.54,0,0,1-.54-.54.11.11,0,0,1,0,0A.53.53,0,0,1,456.6,182.26Z"></path></g><path d="M457.14,182c-.3-.18-.54,0-.54.31a1.19,1.19,0,0,0,.54.94c.3.17.54,0,.54-.31A1.19,1.19,0,0,0,457.14,182Z" style="fill:#e0e0e0"></path></g></g><g id="freepik--sheet--inject-60"><polygon points="390.43 166.51 372.56 156.19 372.56 126.15 390.43 136.46 390.43 166.51" style="opacity:0.15"></polygon><path d="M389.12,166.79l-17-9.79a1,1,0,0,1-.45-.78v-29c0-.29.2-.4.45-.26l17,9.8a1,1,0,0,1,.45.78v29C389.57,166.82,389.37,166.94,389.12,166.79Z" style="fill:#fff"></path><path d="M387.4,141.14l-13.53-7.82a1,1,0,0,1-.5-.7c0-.23.22-.28.5-.12l13.53,7.81a1,1,0,0,1,.51.71C387.91,141.24,387.68,141.3,387.4,141.14Z" style="fill:#e0e0e0"></path><path d="M387.4,143.28l-13.53-7.82a1,1,0,0,1-.5-.7c0-.23.22-.28.5-.12l13.53,7.81a1,1,0,0,1,.51.71C387.91,143.38,387.68,143.44,387.4,143.28Z" style="fill:#e0e0e0"></path><path d="M387.4,147.72l-13.53-7.81a1,1,0,0,1-.5-.71c0-.22.22-.28.5-.12l13.53,7.82a1,1,0,0,1,.51.7C387.91,147.83,387.68,147.88,387.4,147.72Z" style="fill:#e0e0e0"></path><path d="M387.4,149.86l-13.53-7.81a1,1,0,0,1-.5-.7c0-.23.22-.29.5-.13L387.4,149a1,1,0,0,1,.51.7C387.91,150,387.68,150,387.4,149.86Z" style="fill:#e0e0e0"></path><path d="M387.4,156.45l-13.53-7.82a1,1,0,0,1-.5-.7c0-.23.22-.28.5-.12l13.53,7.81a1,1,0,0,1,.51.71C387.91,156.55,387.68,156.61,387.4,156.45Z" style="fill:#e0e0e0"></path><path d="M387.4,154.31l-13.53-7.82a1,1,0,0,1-.5-.7c0-.23.22-.28.5-.12l13.53,7.81a1,1,0,0,1,.51.71C387.91,154.41,387.68,154.47,387.4,154.31Z" style="fill:#e0e0e0"></path><g id="freepik--pushpin--inject-60"><path d="M379.65,134.59l0,0s.05,0,.07,0,.06,0,.11,0l.34-.2.48-.29.54-.33c.06,0,0-.22-.11-.19l-.56.3-.48.28-.35.19s-.08,0-.08.08,0,.06,0,.08Z" style="fill:#e0e0e0"></path><path d="M379.3,134.84a.84.84,0,0,0,1.15.46h0a.5.5,0,0,0,.19-.44,1.54,1.54,0,0,0-.68-1.19.5.5,0,0,0-.46-.06h0l0,0A.84.84,0,0,0,379.3,134.84Z" style="fill:#e0e0e0"></path><g style="opacity:0.15"><path d="M379.3,134.84a.84.84,0,0,0,1.15.46h0a.5.5,0,0,0,.19-.44,1.54,1.54,0,0,0-.68-1.19.5.5,0,0,0-.46-.06h0l0,0A.84.84,0,0,0,379.3,134.84Z"></path></g><path d="M378.75,135.74l-.51-.87a4.64,4.64,0,0,0,1.07-.74l0,0h0a.3.3,0,0,1,.34,0,1,1,0,0,1,.44.78.29.29,0,0,1-.13.28h0a.11.11,0,0,1-.08,0A4.84,4.84,0,0,0,378.75,135.74Z" style="fill:#e0e0e0"></path><path d="M377.8,135a.54.54,0,0,1,.54-.54.65.65,0,0,1,.19,0h0l.08,0a1.23,1.23,0,0,1,.55.94.59.59,0,0,1,0,.14.53.53,0,0,1-1.06-.09v-.05A.55.55,0,0,1,377.8,135Z" style="fill:#e0e0e0"></path><g style="opacity:0.15"><path d="M377.8,135a.54.54,0,0,1,.54-.54.65.65,0,0,1,.19,0h0l.08,0a1.23,1.23,0,0,1,.55.94.59.59,0,0,1,0,.14.53.53,0,0,1-1.06-.09v-.05A.55.55,0,0,1,377.8,135Z"></path></g><path d="M378.34,134.77c-.3-.18-.55,0-.55.31a1.2,1.2,0,0,0,.55.94c.3.18.54,0,.54-.31A1.19,1.19,0,0,0,378.34,134.77Z" style="fill:#e0e0e0"></path></g></g><g id="freepik--sheet--inject-60"><polygon points="370.7 155.31 352.83 144.99 352.83 114.95 370.7 125.26 370.7 155.31" style="opacity:0.15"></polygon><path d="M369.4,155.59l-17-9.79A1,1,0,0,1,352,145V116c0-.29.2-.4.45-.26l17,9.8a1,1,0,0,1,.45.78v29C369.85,155.62,369.64,155.74,369.4,155.59Z" style="fill:#fff"></path><path d="M367.68,129.94l-13.54-7.82a1,1,0,0,1-.5-.7c0-.23.23-.28.5-.12l13.54,7.81a1,1,0,0,1,.5.71C368.18,130,368,130.1,367.68,129.94Z" style="fill:#e0e0e0"></path><path d="M367.68,132.08l-13.54-7.82a1,1,0,0,1-.5-.7c0-.23.23-.28.5-.12l13.54,7.81a1,1,0,0,1,.5.71C368.18,132.18,368,132.24,367.68,132.08Z" style="fill:#e0e0e0"></path><path d="M367.68,136.52l-13.54-7.81a1,1,0,0,1-.5-.71c0-.22.23-.28.5-.12l13.54,7.82a1,1,0,0,1,.5.7C368.18,136.63,368,136.68,367.68,136.52Z" style="fill:#e0e0e0"></path><path d="M367.68,138.66l-13.54-7.81a1,1,0,0,1-.5-.71c0-.22.23-.28.5-.12l13.54,7.82a1,1,0,0,1,.5.7C368.18,138.77,368,138.82,367.68,138.66Z" style="fill:#e0e0e0"></path><path d="M367.68,145.25l-13.54-7.82a1,1,0,0,1-.5-.7c0-.23.23-.28.5-.12l13.54,7.81a1,1,0,0,1,.5.71C368.18,145.35,368,145.41,367.68,145.25Z" style="fill:#e0e0e0"></path><path d="M367.68,143.11l-13.54-7.82a1,1,0,0,1-.5-.7c0-.23.23-.28.5-.12l13.54,7.81a1,1,0,0,1,.5.71C368.18,143.21,368,143.27,367.68,143.11Z" style="fill:#e0e0e0"></path><g id="freepik--pushpin--inject-60"><path d="M359.92,123.39l0,0s0,0,.06,0,.07,0,.11,0l.34-.2.48-.29.55-.33c.05,0-.05-.22-.11-.19l-.56.3-.49.28-.34.19s-.09,0-.08.08a.11.11,0,0,0,0,.08Z" style="fill:#e0e0e0"></path><path d="M359.57,123.64c.27.46.7.7,1.15.46l0,0h0a.52.52,0,0,0,.19-.44,1.52,1.52,0,0,0-.69-1.19.5.5,0,0,0-.46-.06h0l0,0A.84.84,0,0,0,359.57,123.64Z" style="fill:#e0e0e0"></path><g style="opacity:0.15"><path d="M359.57,123.64c.27.46.7.7,1.15.46l0,0h0a.52.52,0,0,0,.19-.44,1.52,1.52,0,0,0-.69-1.19.5.5,0,0,0-.46-.06h0l0,0A.84.84,0,0,0,359.57,123.64Z"></path></g><path d="M359,124.54l-.51-.87a4.85,4.85,0,0,0,1.08-.74,0,0,0,0,0,0,0h0a.28.28,0,0,1,.34,0,1,1,0,0,1,.45.78.29.29,0,0,1-.13.28h0a.16.16,0,0,1-.09,0A5.05,5.05,0,0,0,359,124.54Z" style="fill:#e0e0e0"></path><path d="M358.07,123.84a.54.54,0,0,1,.54-.54.58.58,0,0,1,.19,0h0l.09,0a1.22,1.22,0,0,1,.54.94.59.59,0,0,1,0,.14.53.53,0,0,1-.52.44.54.54,0,0,1-.54-.53.07.07,0,0,1,0,0A.54.54,0,0,1,358.07,123.84Z" style="fill:#e0e0e0"></path><g style="opacity:0.15"><path d="M358.07,123.84a.54.54,0,0,1,.54-.54.58.58,0,0,1,.19,0h0l.09,0a1.22,1.22,0,0,1,.54.94.59.59,0,0,1,0,.14.53.53,0,0,1-.52.44.54.54,0,0,1-.54-.53.07.07,0,0,1,0,0A.54.54,0,0,1,358.07,123.84Z"></path></g><path d="M358.61,123.57c-.3-.18-.54,0-.54.31a1.19,1.19,0,0,0,.54.94c.3.18.54,0,.54-.31A1.19,1.19,0,0,0,358.61,123.57Z" style="fill:#e0e0e0"></path></g></g><g id="freepik--sheet--inject-60"><polygon points="469.23 142.87 451.36 132.55 451.36 102.5 469.23 112.82 469.23 142.87" style="opacity:0.15"></polygon><path d="M467.93,143.15l-17-9.8a1,1,0,0,1-.45-.78v-29c0-.29.2-.41.45-.26l17,9.8a1,1,0,0,1,.45.77v29C468.38,143.18,468.17,143.29,467.93,143.15Z" style="fill:#fff"></path><path d="M466.21,117.49l-13.54-7.81a1,1,0,0,1-.5-.7c0-.23.23-.28.5-.12l13.54,7.81a1,1,0,0,1,.5.7C466.71,117.6,466.49,117.65,466.21,117.49Z" style="fill:#e0e0e0"></path><path d="M466.21,119.63l-13.54-7.81a1,1,0,0,1-.5-.7c0-.23.23-.28.5-.12l13.54,7.81a1,1,0,0,1,.5.7C466.71,119.74,466.49,119.79,466.21,119.63Z" style="fill:#e0e0e0"></path><path d="M466.21,124.08l-13.54-7.82a1,1,0,0,1-.5-.7c0-.23.23-.28.5-.12l13.54,7.82a1,1,0,0,1,.5.7C466.71,124.19,466.49,124.24,466.21,124.08Z" style="fill:#e0e0e0"></path><path d="M466.21,126.22l-13.54-7.82a1,1,0,0,1-.5-.7c0-.22.23-.28.5-.12l13.54,7.82a1,1,0,0,1,.5.7C466.71,126.33,466.49,126.38,466.21,126.22Z" style="fill:#e0e0e0"></path><path d="M466.21,132.8,452.67,125a1,1,0,0,1-.5-.7c0-.23.23-.28.5-.12L466.21,132a1,1,0,0,1,.5.7C466.71,132.91,466.49,133,466.21,132.8Z" style="fill:#e0e0e0"></path><path d="M466.21,130.66l-13.54-7.81a1,1,0,0,1-.5-.7c0-.23.23-.28.5-.12l13.54,7.81a1,1,0,0,1,.5.7C466.71,130.77,466.49,130.82,466.21,130.66Z" style="fill:#e0e0e0"></path><g id="freepik--pushpin--inject-60"><path d="M458.45,111l0,0,.06,0s.07,0,.11,0l.34-.2c.14-.08.31-.17.48-.28l.55-.34c.05,0,0-.21-.11-.18l-.56.3-.49.27-.34.2s-.09,0-.08.08a.11.11,0,0,0,0,.08Z" style="fill:#e0e0e0"></path><path d="M458.1,111.2c.27.45.7.7,1.15.46l0,0h0a.52.52,0,0,0,.19-.44,1.52,1.52,0,0,0-.69-1.19.5.5,0,0,0-.46-.06h0l0,0A.84.84,0,0,0,458.1,111.2Z" style="fill:#e0e0e0"></path><g style="opacity:0.15"><path d="M458.1,111.2c.27.45.7.7,1.15.46l0,0h0a.52.52,0,0,0,.19-.44,1.52,1.52,0,0,0-.69-1.19.5.5,0,0,0-.46-.06h0l0,0A.84.84,0,0,0,458.1,111.2Z"></path></g><path d="M457.55,112.1l-.51-.87a5.24,5.24,0,0,0,1.08-.74s0,0,0,0l0,0h0a.28.28,0,0,1,.34,0,1,1,0,0,1,.45.77.3.3,0,0,1-.13.29h0l-.09,0A4.64,4.64,0,0,0,457.55,112.1Z" style="fill:#e0e0e0"></path><path d="M456.6,111.4a.54.54,0,0,1,.54-.54.58.58,0,0,1,.19,0h0l.09,0a1.19,1.19,0,0,1,.54.94.68.68,0,0,1,0,.14.53.53,0,0,1-.52.44.54.54,0,0,1-.54-.54.11.11,0,0,1,0-.05A.53.53,0,0,1,456.6,111.4Z" style="fill:#e0e0e0"></path><g style="opacity:0.15"><path d="M456.6,111.4a.54.54,0,0,1,.54-.54.58.58,0,0,1,.19,0h0l.09,0a1.19,1.19,0,0,1,.54.94.68.68,0,0,1,0,.14.53.53,0,0,1-.52.44.54.54,0,0,1-.54-.54.11.11,0,0,1,0-.05A.53.53,0,0,1,456.6,111.4Z"></path></g><path d="M457.14,111.13c-.3-.18-.54,0-.54.31a1.19,1.19,0,0,0,.54.94c.3.17.54,0,.54-.31A1.19,1.19,0,0,0,457.14,111.13Z" style="fill:#e0e0e0"></path></g></g><g id="freepik--Tube--inject-60"><path d="M474.09,112.31l3-5.17L346.67,31.85h0a1.44,1.44,0,0,0-1.53.12,4.65,4.65,0,0,0-2.1,3.65A1.52,1.52,0,0,0,343.6,37h0l0,0h0Z" style="fill:#f0f0f0"></path><path d="M473.46,110.93a4.65,4.65,0,0,1,2.11-3.65c1.16-.67,2.1-.12,2.1,1.22a4.66,4.66,0,0,1-2.1,3.65C474.4,112.82,473.46,112.28,473.46,110.93Z" style="fill:#e0e0e0"></path></g><polygon points="445.12 172.01 393.65 142.29 393.7 169.25 445.23 199 445.12 172.01" style="fill:#fff"></polygon><path d="M445.23,199l-51.55-29.76v-6a4.76,4.76,0,0,1,.73.87,8.12,8.12,0,0,1,.46,1.87,2,2,0,0,0,.33.82,5,5,0,0,1,.26,1c.28.89.73,1.11,1.18,1.21a5.19,5.19,0,0,1,1.73,1.17,5,5,0,0,0,.76.53c.33.16.52-.07.78-.18a1.57,1.57,0,0,1,1.78.37c.55.54,1.13.5,1.68,1.09s.88,1.14,1.35,1.58,1.11.56,1.68,1a5,5,0,0,0,1.28.88c.93.32,1.7,1.45,2.59,2,1.51,1,1.07-1.79,1.75-2.72.38-.52.23-1.44.4-2.23a2.3,2.3,0,0,1,.33-.74c.13-.22.2-.59.34-.77s.32-.22.44-.11.17.77.38,1,.29.05.43.16a2.17,2.17,0,0,1,.44.8,7.53,7.53,0,0,0,1.07,1.55c.34.48.47,1.08.86,1.54s.6.52.87.34.49-3,.7-3.38.31-1.28.63-1.64.29.25.51.15.1-.26.21-.29.26.12.39.32.39.78.6,1.1c.36.54.38.05.63.06s.39.66.51,1a10.07,10.07,0,0,1,.5,1.46,8.17,8.17,0,0,0,.38,1.86c.1.12.11-.07.17,0a1.08,1.08,0,0,1,.19.53,3.24,3.24,0,0,0,.43,1.28c.33.42.46,0,.73.06s.45.36.68.37.22-.17.39-.09.16.18.25.22.24-.06.47.28a3.09,3.09,0,0,0,.41.61.74.74,0,0,0,.59.17c.21,0,.29-.25.43-.43s.26-.05.46-.06.29-.18.5.25a6.25,6.25,0,0,1,.27,1.42c.08.53.17,1.06.27,1.6a6.62,6.62,0,0,0,.87,2.6,1.29,1.29,0,0,0,.75.59c.24,0,.52-.12.78.07s.16.21.27.32c.33.31.64.22,1,.57a3.74,3.74,0,0,0,.79.72,7.35,7.35,0,0,1,1.06,1.23,2.33,2.33,0,0,0,1.31.88,2.63,2.63,0,0,0,1.27.06c.27-.09.49.14.81.36s.39,0,.61.08.49.33.72.39.33-.12.51-.1a.9.9,0,0,0,.54,0c.57-.26.79-1,1-1.88a3.93,3.93,0,0,1,.7-2.07c.42-.4,1.11-.31,1.27-1.17a46.79,46.79,0,0,0,.63-5.72c.18-3.26.48-5.95.7-5.66s0,6.09.83,7.78Z" style="fill:#f0f0f0"></path></g></g><g id="freepik--Clock--inject-60"><g id="freepik--clock--inject-60"><path d="M219.14,48.3h0l0,0h0l-4.66-2.7h0l0,0h0c-2.93-1.48-6.85-1.05-11.07,1.67-8.47,5.46-14.94,18-14.45,28.11.24,5,2.17,8.46,5.09,10h0l4.65,2.7h0l0,0h0c2.93,1.49,6.85,1,11.07-1.66,8.48-5.46,14.95-18,14.46-28.11C224,53.26,222.06,49.82,219.14,48.3Z" style="fill:#ebebeb"></path><path d="M198.45,87.92,194,85.33h0c-2.92-1.52-4.85-5-5.09-10a31.43,31.43,0,0,1,3.05-14.11l4.66,2.7A31.31,31.31,0,0,0,193.54,78C193.78,83,195.63,86.35,198.45,87.92Z" style="fill:#e0e0e0"></path><path d="M209.77,86.39c8.48-5.46,14.95-18,14.46-28.11S216.48,44.47,208,49.93,193.06,68,193.54,78,201.3,91.84,209.77,86.39Z" style="fill:#f0f0f0"></path><path d="M202.67,85.68c-5,.25-5.81-5.37-5.92-7.8-.44-8.88,5.51-20.44,13-25.26a11.39,11.39,0,0,1,5.36-2c5-.24,5.81,5.38,5.93,7.8.43,8.88-5.52,20.45-13,25.26a11.18,11.18,0,0,1-5.37,2Z" style="fill:#fff"></path><path d="M209.87,69.82a.57.57,0,0,1-.18,0,.54.54,0,0,1-.37-.51V56.43a.55.55,0,0,1,.55-.54.54.54,0,0,1,.54.54V67.69l6-7.69a.55.55,0,1,1,.86.67l-7,8.94A.54.54,0,0,1,209.87,69.82Z" style="fill:#e0e0e0"></path><path d="M206.8,79.31h-.08a.22.22,0,0,1-.15-.28l3-10.16a.24.24,0,0,1,.29-.16A.23.23,0,0,1,210,69l-3,10.16A.24.24,0,0,1,206.8,79.31Z" style="fill:#ebebeb"></path><path d="M209.7,66.71c1-.64,1.85-.2,1.91,1A4.13,4.13,0,0,1,209.9,71c-1,.64-1.85.2-1.9-1A4.09,4.09,0,0,1,209.7,66.71Z" style="fill:#ebebeb"></path></g></g><g id="freepik--Picture--inject-60"><g id="freepik--picture--inject-60"><g id="freepik--Frame--inject-60"><polygon points="192.71 136.79 194 137.56 220.43 122.3 219.14 121.53 192.71 136.79" style="fill:#fafafa"></polygon><polygon points="219.14 121.53 194 136.04 194 109.71 219.14 95.2 219.14 121.53" style="fill:#fff"></polygon><path d="M222.86,90.24l-31.3,18.07v33.46l31.3-18.07Zm-2.43,32.06L194,137.56V109.71l26.43-15.26Z" style="fill:#ebebeb"></path><polygon points="220.43 122.3 219.14 121.53 219.14 95.2 220.43 94.45 220.43 122.3" style="fill:#e0e0e0"></polygon><polygon points="222.86 90.24 221.55 89.49 190.26 107.56 191.56 108.31 222.86 90.24" style="fill:#f5f5f5"></polygon><polygon points="190.26 107.56 191.56 108.31 191.56 141.77 190.26 141.02 190.26 107.56" style="fill:#e0e0e0"></polygon></g><g id="freepik--Land--inject-60"><polygon points="218.16 120.74 194.98 134.12 194.98 127.43 200.77 114.05 204.38 117.39 203.09 123 211.09 105.88 218.16 114.05 218.16 120.74" style="fill:#f0f0f0"></polygon><path d="M204.17,107.58a3.8,3.8,0,0,0-1.72,3c0,1.1.77,1.54,1.72,1a3.78,3.78,0,0,0,1.71-3C205.88,107.48,205.11,107,204.17,107.58Z" style="fill:#f0f0f0"></path></g></g></g><g id="freepik--Plant--inject-60"><g id="freepik--plant--inject-60"><g id="freepik--Pot--inject-60"><g id="freepik--pot--inject-60"><path d="M191.31,268.11H156.45l3.61,15h0c.28,1.81,1.61,3.58,4,5,5.42,3.13,14.21,3.13,19.63,0,2.59-1.49,3.92-3.42,4-5.38Z" style="fill:#37474f"></path><path d="M187.06,278.4a14.24,14.24,0,0,0,2.09-1.46l2-8a14.11,14.11,0,0,1-3.53,2.8c-7.36,4.25-19.14,4.35-26.75.35l.89-3.58-.27-.38h-5l3.61,15h0c.28,1.81,1.61,3.58,4,5,3.86,2.23,9.43,2.87,14.27,1.92-8.68.65-14.64-3.15-15.54-6.65-.35-1.4-1-4.49-1-4.49C169.08,282.54,180.13,282.4,187.06,278.4Z" style="fill:#263238"></path><path d="M193.13,263.67a7.3,7.3,0,0,1-1.17,2.71,13,13,0,0,1-4.37,3.88c-7.57,4.37-19.84,4.37-27.41,0a13,13,0,0,1-4.37-3.88,7.44,7.44,0,0,1-1.16-2.71h0c-.67-3.29,1.18-6.71,5.54-9.23,7.57-4.37,19.84-4.37,27.41,0C192,257,193.8,260.38,193.13,263.67Z" style="fill:#455a64"></path><path d="M192,266.38a13,13,0,0,1-4.37,3.88c-7.57,4.37-19.84,4.37-27.41,0a13,13,0,0,1-4.37-3.88,7.44,7.44,0,0,1-1.16-2.71h0l.86,5.91c.4,2.37,2.17,4.69,5.33,6.51,7.21,4.16,18.9,4.16,26.11,0,3.12-1.8,4.89-4.09,5.31-6.43l0-.3.84-5.69A7.3,7.3,0,0,1,192,266.38Z" style="fill:#37474f"></path><path d="M185.31,255.76c-6.31-3.65-16.54-3.65-22.84,0-3.57,2.06-5.12,4.84-4.65,7.53.36,2.06,1.91,4.07,4.65,5.65,6.3,3.64,16.53,3.64,22.84,0,2.73-1.58,4.28-3.59,4.64-5.64C190.42,260.6,188.88,257.82,185.31,255.76Z" style="fill:#263238"></path><path d="M158.89,265.79a10.7,10.7,0,0,0,3.58,3.15c6.3,3.64,16.53,3.64,22.84,0a11,11,0,0,0,3.58-3.15c0-2.18-1.51-4.35-4.39-6-5.86-3.38-15.37-3.38-21.22,0C160.39,261.44,158.93,263.61,158.89,265.79Z" style="fill:#fafafa"></path></g><g id="freepik--Plants--inject-60"><path d="M186.75,211.27l-9.94,8.52,9.74-5a27.53,27.53,0,0,1-1.36,9.46,61.33,61.33,0,0,0-7.51,5.78l7.49-3.3a38.12,38.12,0,0,1-1.08,12.71c-.47,2-2.57,5.94-3.88,8.85a33.2,33.2,0,0,1-2.06,3.9c0,.08-.09.15-.14.23-1.78-.92-3.62-1.82-5.53-2.68-1.33-2.52-3.16-8.81-3.94-14-3-19.81,11.65-31.8,23.6-36.09A35.91,35.91,0,0,0,186.75,211.27Z" style="fill:#32947C"></path><path d="M186.75,211.27l-9.94,8.52,9.74-5a27.53,27.53,0,0,1-1.36,9.46,61.33,61.33,0,0,0-7.51,5.78l7.49-3.3a38.12,38.12,0,0,1-1.08,12.71c-.47,2-2.57,5.94-3.88,8.85a33.2,33.2,0,0,1-2.06,3.9c0,.08-.09.15-.14.23-1.78-.92-3.62-1.82-5.53-2.68-1.33-2.52-3.16-8.81-3.94-14-3-19.81,11.65-31.8,23.6-36.09A35.91,35.91,0,0,0,186.75,211.27Z" style="fill:#fff;opacity:0.65"></path><path d="M178.21,212.43a19.45,19.45,0,0,0-4,7.81,40,40,0,0,0-1.48,8.68,37.18,37.18,0,0,0,2.84,17.2h0a.29.29,0,0,1-.15.38.28.28,0,0,1-.38-.15h0a37.75,37.75,0,0,1-2.6-17.45,40.13,40.13,0,0,1,1.64-8.7A19.48,19.48,0,0,1,178.21,212.43Z" style="fill:#fff"></path><path d="M143.89,219.07a0,0,0,0,0,0,0,158.73,158.73,0,0,1,8.43,17.75l10.59,3.68-8.29,0,3.11,7.6,10.33,4.11-8.62-.12s.88,8.59,6.27,13c3,2.47,4.41,2.77,5.71,2.27,1.58-.6,2.68-2.82,3.88-6.22s1.23-10.67-.85-18.12a22,22,0,0,0-2.54-5.65C165.55,227.18,151.32,220.27,143.89,219.07Z" style="fill:#32947C"></path><path d="M143.89,219.07a0,0,0,0,0,0,0,158.73,158.73,0,0,1,8.43,17.75l10.59,3.68-8.29,0,3.11,7.6,10.33,4.11-8.62-.12s.88,8.59,6.27,13c3,2.47,4.41,2.77,5.71,2.27,1.58-.6,2.68-2.82,3.88-6.22s1.23-10.67-.85-18.12a22,22,0,0,0-2.54-5.65C165.55,227.18,151.32,220.27,143.89,219.07Z" style="fill:#fff;opacity:0.30000000000000004"></path><path d="M154.66,224.65A45.17,45.17,0,0,1,168,237.8a30.15,30.15,0,0,1,3.82,8.62,28.52,28.52,0,0,1,.79,9.37,0,0,0,0,1,0,0,0,0,0,0,1,0,0,37,37,0,0,0-1.32-9.21,34.13,34.13,0,0,0-3.65-8.52,45.93,45.93,0,0,0-12.92-13.36,0,0,0,0,1,0,0S154.64,224.64,154.66,224.65Z" style="fill:#fff"></path><path d="M211.58,222.76h0a26,26,0,0,0-3.29.16A52.09,52.09,0,0,0,195.73,226c-1.5.56-3,1.19-4.48,1.9-.74.35-1.48.73-2.2,1.12a36.18,36.18,0,0,0-9.62,7.27,23.15,23.15,0,0,0-3.32,4.66c-.11.22-.24.43-.35.65h0c-.28.57-.53,1.13-.77,1.69a31.38,31.38,0,0,0-2.83,15.45c.13,3.75,1.41,8,2.14,8.73a1.85,1.85,0,0,0,.32.25c1.07.68,2.77.28,5.94-1.5,6.36-3.55,8.86-12.56,8.86-12.56l-8.84-1.5,11.35-2.27,4.61-7.19-8.48-1.54,11.52-1.78a171.72,171.72,0,0,1,12-16.58l0,0Z" style="fill:#32947C"></path><path d="M211.58,222.76h0a26,26,0,0,0-3.29.16A52.09,52.09,0,0,0,195.73,226c-1.5.56-3,1.19-4.48,1.9-.74.35-1.48.73-2.2,1.12a36.18,36.18,0,0,0-9.62,7.27,23.15,23.15,0,0,0-3.32,4.66c-.11.22-.24.43-.35.65h0c-.28.57-.53,1.13-.77,1.69a31.38,31.38,0,0,0-2.83,15.45c.13,3.75,1.41,8,2.14,8.73a1.85,1.85,0,0,0,.32.25c1.07.68,2.77.28,5.94-1.5,6.36-3.55,8.86-12.56,8.86-12.56l-8.84-1.5,11.35-2.27,4.61-7.19-8.48-1.54,11.52-1.78a171.72,171.72,0,0,1,12-16.58l0,0Z" style="fill:#fff;opacity:0.65"></path><path d="M208.29,222.92A52.09,52.09,0,0,0,195.73,226c-1.5.56-3,1.19-4.48,1.9-.74.35-1.48.73-2.2,1.12a36.18,36.18,0,0,0-9.62,7.27,23.15,23.15,0,0,0-3.32,4.66c-.11.22-.24.43-.35.65h0c-.28.57-.53,1.13-.77,1.69a31.38,31.38,0,0,0-2.83,15.45c.13,3.75,1.41,8,2.14,8.73a1.85,1.85,0,0,0,.32.25,2,2,0,0,0,.7.25c-.78-5.8,2.07-20.53,6.4-26.58,4.5-6.3,15.17-15.44,29.84-18.59v0A27.47,27.47,0,0,0,208.29,222.92Z" style="fill:#32947C"></path><path d="M208.29,222.92A52.09,52.09,0,0,0,195.73,226c-1.5.56-3,1.19-4.48,1.9-.74.35-1.48.73-2.2,1.12a36.18,36.18,0,0,0-9.62,7.27,23.15,23.15,0,0,0-3.32,4.66c-.11.22-.24.43-.35.65h0c-.28.57-.53,1.13-.77,1.69a31.38,31.38,0,0,0-2.83,15.45c.13,3.75,1.41,8,2.14,8.73a1.85,1.85,0,0,0,.32.25,2,2,0,0,0,.7.25c-.78-5.8,2.07-20.53,6.4-26.58,4.5-6.3,15.17-15.44,29.84-18.59v0A27.47,27.47,0,0,0,208.29,222.92Z" style="fill:#fff;opacity:0.5"></path><path d="M175.29,268a49.49,49.49,0,0,1,.83-12.85,41.4,41.4,0,0,1,4.26-12.17,36,36,0,0,1,8.62-9.63,48,48,0,0,1,11.06-6.63,0,0,0,0,1,.05,0s0,0,0,0a63.27,63.27,0,0,0-10.63,7.13,47,47,0,0,0-4.68,4.35,27.75,27.75,0,0,0-3.9,5,41.06,41.06,0,0,0-4.41,12A49.68,49.68,0,0,0,175.36,268a0,0,0,0,1,0,0A0,0,0,0,1,175.29,268Z" style="fill:#fff"></path></g></g></g></g><g id="freepik--Chair--inject-60"><g id="freepik--chair--inject-60"><path d="M98,355a4.32,4.32,0,0,0,.1.92,2.06,2.06,0,0,0,.83,1.27l0,0a2.4,2.4,0,0,0,2.54-.19A7.71,7.71,0,0,0,105,351a2.47,2.47,0,0,0-1-2.21h0l-.17-.1h0a2.12,2.12,0,0,0-1.48-.06,4.46,4.46,0,0,0-.86.37A7.7,7.7,0,0,0,98,355Z" style="fill:#455a64"></path><path d="M99,347.53a3.19,3.19,0,0,1,1.56-.47,1.8,1.8,0,0,1,1,.27l.09.05,2.25,1.3a2.12,2.12,0,0,0-1.48-.06,4.46,4.46,0,0,0-.86.37A7.7,7.7,0,0,0,98,355a4.32,4.32,0,0,0,.1.92,2.06,2.06,0,0,0,.83,1.27l-2.32-1.33,0,0-.19-.12-.06,0a2.57,2.57,0,0,1-.86-2.14A7.71,7.71,0,0,1,99,347.53Z" style="fill:#263238"></path><path d="M135.77,334.72a4.32,4.32,0,0,0,.1.92,2.06,2.06,0,0,0,.83,1.27l0,0a2.4,2.4,0,0,0,2.54-.19,7.71,7.71,0,0,0,3.49-6.05,2.47,2.47,0,0,0-1-2.21h0l-.17-.1h0a2.12,2.12,0,0,0-1.48-.06,4.46,4.46,0,0,0-.86.37A7.7,7.7,0,0,0,135.77,334.72Z" style="fill:#455a64"></path><path d="M136.72,327.22a3.19,3.19,0,0,1,1.56-.47,1.8,1.8,0,0,1,1,.27l.09.05,2.25,1.3a2.12,2.12,0,0,0-1.48-.06,4.46,4.46,0,0,0-.86.37,7.7,7.7,0,0,0-3.49,6,4.32,4.32,0,0,0,.1.92,2.06,2.06,0,0,0,.83,1.27l-2.32-1.33,0,0-.19-.12-.06,0a2.57,2.57,0,0,1-.86-2.14A7.71,7.71,0,0,1,136.72,327.22Z" style="fill:#263238"></path><path d="M129,363a5.12,5.12,0,0,1-.09.92,2.1,2.1,0,0,1-.83,1.27l0,0a2.4,2.4,0,0,1-2.54-.19,7.71,7.71,0,0,1-3.49-6.05,2.47,2.47,0,0,1,1-2.21h0l.17-.1h0a2.14,2.14,0,0,1,1.49-.06,4.39,4.39,0,0,1,.85.37A7.7,7.7,0,0,1,129,363Z" style="fill:#455a64"></path><path d="M128.08,355.46a3.12,3.12,0,0,0-1.55-.47,1.84,1.84,0,0,0-1,.27l-.09.05-2.25,1.3a2.14,2.14,0,0,1,1.49-.06,4.39,4.39,0,0,1,.85.37,7.7,7.7,0,0,1,3.49,6,5.12,5.12,0,0,1-.09.92,2.1,2.1,0,0,1-.83,1.27l2.31-1.33,0,0,.2-.12.06,0a2.56,2.56,0,0,0,.85-2.14A7.69,7.69,0,0,0,128.08,355.46Z" style="fill:#263238"></path><path d="M153.55,351a4.32,4.32,0,0,1-.1.92,2.1,2.1,0,0,1-.82,1.28h0a2.4,2.4,0,0,1-2.54-.19,7.71,7.71,0,0,1-3.49-6.05,2.47,2.47,0,0,1,1-2.21h0l.17-.1h0a2.12,2.12,0,0,1,1.48-.06,4.46,4.46,0,0,1,.86.37A7.7,7.7,0,0,1,153.55,351Z" style="fill:#455a64"></path><path d="M152.6,343.45A3.13,3.13,0,0,0,151,343a1.8,1.8,0,0,0-1,.27l-.09.05-2.25,1.3a2.12,2.12,0,0,1,1.48-.06,4.46,4.46,0,0,1,.86.37,7.7,7.7,0,0,1,3.49,6,4.32,4.32,0,0,1-.1.92,2.1,2.1,0,0,1-.82,1.28l2.31-1.34,0,0,.19-.12.06,0a2.57,2.57,0,0,0,.86-2.14A7.71,7.71,0,0,0,152.6,343.45Z" style="fill:#263238"></path><path d="M106.16,336.22a4.32,4.32,0,0,1-.1.92,2.11,2.11,0,0,1-.83,1.28l0,0a2.41,2.41,0,0,1-2.53-.2,7.71,7.71,0,0,1-3.49-6.05,2.47,2.47,0,0,1,1-2.21h0l.17-.1h0a2.12,2.12,0,0,1,1.48-.06,4.46,4.46,0,0,1,.86.37A7.72,7.72,0,0,1,106.16,336.22Z" style="fill:#455a64"></path><path d="M105.2,328.72a3.12,3.12,0,0,0-1.55-.47,1.8,1.8,0,0,0-1,.27l-.09.05-2.25,1.3a2.12,2.12,0,0,1,1.48-.06,4.46,4.46,0,0,1,.86.37,7.72,7.72,0,0,1,3.49,6,4.32,4.32,0,0,1-.1.92,2.11,2.11,0,0,1-.83,1.28l2.32-1.34,0,0,.2-.12.06,0a2.57,2.57,0,0,0,.86-2.14A7.7,7.7,0,0,0,105.2,328.72Z" style="fill:#263238"></path><polygon points="127 328.84 139.47 325.27 139.47 327.93 127 335.12 127 328.84" style="fill:#ebebeb"></polygon><polygon points="127 328.84 125.77 328.09 138.27 324.67 139.47 325.27 127 328.84" style="fill:#f5f5f5"></polygon><polygon points="121.61 336.79 103.94 330.17 103.94 327.47 121.61 329.05 121.61 336.79" style="fill:#ebebeb"></polygon><polygon points="103.94 327.47 105.23 327.13 122.66 328.25 121.61 329.05 103.94 327.47" style="fill:#f5f5f5"></polygon><path d="M121.14,335.94c0,2,6.14,2,6.14,0V312.76h-6.14Z" style="fill:#fafafa"></path><path d="M125.74,331.39l3.38,21.94h-2.31l-3.16-21.94A3.89,3.89,0,0,0,125.74,331.39Z" style="fill:#f5f5f5"></path><polygon points="123.65 331.39 123.65 337.42 126.81 357.05 126.81 353.33 123.65 331.39" style="fill:#ebebeb"></polygon><rect x="126.81" y="353.33" width="2.31" height="3.71" style="fill:#e0e0e0"></rect><polygon points="122.6 337.24 99.81 349.18 99.81 345.5 122.6 331.41 122.6 337.24" style="fill:#ebebeb"></polygon><path d="M122.6,331.41a2.53,2.53,0,0,1-1.46-.67l-22.75,13.8,1.42,1Z" style="fill:#f5f5f5"></path><polygon points="99.81 349.18 99.81 345.5 98.39 344.54 98.39 348.11 99.81 349.18" style="fill:#e0e0e0"></polygon><polygon points="151.33 344.96 126.98 336.63 126.98 331.16 151.33 341.29 151.33 344.96" style="fill:#ebebeb"></polygon><path d="M127,331.16c.2-.05.29-.41.3-1L152.05,341l-.72.3Z" style="fill:#f5f5f5"></path><polygon points="152.05 340.99 152.05 344.55 151.33 344.96 151.33 341.29 152.05 340.99" style="fill:#e0e0e0"></polygon><rect x="126.81" y="353.33" width="2.31" height="3.71" style="opacity:0.1"></rect><polygon points="99.81 349.18 99.81 345.5 98.39 344.54 98.39 348.11 99.81 349.18" style="opacity:0.1"></polygon><polygon points="152.05 340.99 152.05 344.55 151.33 344.96 151.33 341.29 152.05 340.99" style="opacity:0.1"></polygon><path d="M128.52,296.86h-8.61V322c0,2.48,8.61,2.48,8.61,0Z" style="fill:#f0f0f0"></path><path d="M163.45,293.52v2.32l-37.82,21.83a4.84,4.84,0,0,1-4.84,0L83,295.84v-2.32Z" style="fill:#37474f"></path><rect x="142.48" y="261.78" width="4.03" height="19.98" transform="translate(288.99 543.54) rotate(180)" style="fill:#37474f"></rect><path d="M144.53,257.28l21.08,12.18-8,4.65-24.15-13.94,5-2.89A6.14,6.14,0,0,1,144.53,257.28Z" style="fill:#32947C"></path><path d="M144.53,257.28l21.08,12.18-8,4.65-24.15-13.94,5-2.89A6.14,6.14,0,0,1,144.53,257.28Z" style="fill:#fff;opacity:0.2"></path><polygon points="133.42 262.33 133.42 260.17 157.56 274.11 157.56 276.27 133.42 262.33" style="fill:#32947C"></polygon><polygon points="133.42 262.33 133.42 260.17 157.56 274.11 157.56 276.27 133.42 262.33" style="opacity:0.30000000000000004"></polygon><polygon points="165.61 269.46 165.61 271.62 157.56 276.27 157.56 274.11 165.61 269.46" style="fill:#32947C"></polygon><polygon points="165.61 269.46 165.61 271.62 157.56 276.27 157.56 274.11 165.61 269.46" style="opacity:0.15"></polygon><path d="M107,281.79a4,4,0,0,0,2-3.48V264.13c0-1-.73-1.47-1.64-1L100.53,267a3.5,3.5,0,0,0-1.64,2.79v14.39a4,4,0,0,1-2,3.5l4.06-2.35Z" style="fill:#263238"></path><path d="M107.93,282.25a4,4,0,0,0,2-3.48V264.59c0-1-.73-1.47-1.64-1l-6.79,3.78a3.52,3.52,0,0,0-1.64,2.79v14.4a4,4,0,0,1-2,3.49l4-2.35Z" style="fill:#37474f"></path><path d="M83,293.52l37.77,21.82a4.94,4.94,0,0,0,4.91,0l37.79-21.82a8.05,8.05,0,0,0-4-7L156,284.6l-.63-.38-27.65-16a9,9,0,0,0-9.09,0L87,286.55l-.07.06-.08.05A8,8,0,0,0,83,293.52Z" style="fill:#32947C"></path><path d="M163.45,293.52a8.05,8.05,0,0,0-4-7L156,284.6c4.75,2.8,6.71,4.67,3.38,6.59l-33.67,19.44a5,5,0,0,1-2.53.68V316a5.05,5.05,0,0,0,2.53-.68Z" style="opacity:0.15"></path><path d="M120.67,310.63C114.31,307,97.73,297.36,91,293.52c-7-4-4.82-6.35-4.17-6.86A8,8,0,0,0,83,293.52l37.68,21.77a5.15,5.15,0,0,0,2.55.68v-4.66A4.94,4.94,0,0,1,120.67,310.63Z" style="opacity:0.30000000000000004"></path><path d="M116.2,201.11l-2.53-1.47c-1.47-.84-3.49-.71-5.73.58l-20,11.54c-4.49,2.58-8.13,8.88-8.13,14.07v51.83l2.52,1.47,36.29-20.95V206.39C118.6,203.78,117.68,202,116.2,201.11Z" style="fill:#37474f"></path><path d="M118.6,239.06V206.39c0-2.61-.92-4.44-2.4-5.28l-2.53-1.47c-1.47-.84-3.49-.71-5.73.58l-20,11.54A16.73,16.73,0,0,0,82.08,218Z" style="fill:#455a64"></path><path d="M116.19,201.11c-1.46-.84-3.49-.71-5.72.57l-20,11.55c-4.5,2.58-8.14,8.88-8.14,14.07v51.83l3.47,2,36.29-20.95V208.38c0-2.56-.89-4.36-2.32-5.23C119.15,202.79,116.79,201.45,116.19,201.11Z" style="fill:#32947C"></path><path d="M84.61,219.44a16.54,16.54,0,0,0-2.3,7.86v51.83l3.47,2,36.29-20.95V241.06Z" style="opacity:0.30000000000000004"></path><path d="M122.07,208.38c0-2.56-.89-4.36-2.32-5.23-.6-.36-3-1.7-3.56-2-1.46-.84-3.49-.71-5.72.57l-20,11.55a16.62,16.62,0,0,0-5.84,6.21l37.46,21.62Z" style="fill:#fff;opacity:0.2"></path><path d="M85.78,281.12V229.29c0-5.19,3.64-11.49,8.13-14.07l20-11.54c4.49-2.59,8.13-.49,8.13,4.7v51.79Z" style="fill:#32947C"></path><polygon points="102.91 287.54 106.93 287.54 106.93 307.52 103 306.3 102.91 287.54" style="fill:#37474f"></polygon><path d="M105,283,126,295.22,118,299.86,93.85,285.93l5-2.89A6.12,6.12,0,0,1,105,283Z" style="fill:#32947C"></path><path d="M105,283,126,295.22,118,299.86,93.85,285.93l5-2.89A6.12,6.12,0,0,1,105,283Z" style="fill:#fff;opacity:0.2"></path><polygon points="93.85 288.09 93.85 285.93 117.99 299.86 117.99 302.02 93.85 288.09" style="fill:#32947C"></polygon><polygon points="93.85 288.09 93.85 285.93 117.99 299.86 117.99 302.02 93.85 288.09" style="opacity:0.30000000000000004"></polygon><polygon points="126.04 295.22 126.04 297.38 117.99 302.02 117.99 299.86 126.04 295.22" style="fill:#32947C"></polygon><polygon points="126.04 295.22 126.04 297.38 117.99 302.02 117.99 299.86 126.04 295.22" style="opacity:0.15"></polygon></g></g><g id="freepik--Desk--inject-60"><g id="freepik--desk--inject-60"><g id="freepik--Table--inject-60"><polygon points="243.02 265.4 243.03 262.9 243.03 262.9 243.03 243.83 245.23 242.61 245.23 264.18 321.1 307.99 321.1 310.54 245.23 266.68 245.23 315.13 243.03 316.35 243.03 265.4 243.02 265.4" style="fill:#32947C"></polygon><polygon points="243.02 265.4 243.03 262.9 243.03 262.9 243.03 243.83 245.23 242.61 245.23 264.18 321.1 307.99 321.1 310.54 245.23 266.68 245.23 315.13 243.03 316.35 243.03 265.4 243.02 265.4" style="fill:#fff;opacity:0.1"></polygon><path d="M240.82,240.11v75l2.2,1.22V267.86L321.1,313v48.46l2.2,1.31V290.24h0v-2.5Zm2.2,8.51,78.08,44.94v17L243,265.4Z" style="fill:#32947C"></path><path d="M240.82,240.11v75l2.2,1.22V267.86L321.1,313v48.46l2.2,1.31V290.24h0v-2.5Zm2.2,8.51,78.08,44.94v17L243,265.4Z" style="fill:#fff;opacity:0.5"></path><polygon points="119.57 336.83 119.58 334.33 119.58 334.33 119.58 315.26 121.78 314.03 121.78 335.6 197.65 379.42 197.65 381.97 121.78 338.1 121.78 386.56 119.58 387.78 119.58 336.83 119.57 336.83" style="fill:#32947C"></polygon><polygon points="119.57 336.83 119.58 334.33 119.58 334.33 119.58 315.26 121.78 314.03 121.78 335.6 197.65 379.42 197.65 381.97 121.78 338.1 121.78 386.56 119.58 387.78 119.58 336.83 119.57 336.83" style="fill:#fff;opacity:0.1"></polygon><polygon points="323.3 287.92 323.3 287.74 323.46 287.83 325.5 286.65 325.5 288.97 325.5 294.23 325.5 361.49 323.3 362.76 323.3 295.49 202.05 365.29 202.05 432.92 199.85 434.19 199.85 366.56 199.85 359.17 199.85 359.16 323.3 287.92" style="fill:#32947C"></polygon><polygon points="323.3 287.92 323.3 287.74 323.46 287.83 325.5 286.65 325.5 288.97 325.5 294.23 325.5 361.49 323.3 362.76 323.3 295.49 202.05 365.29 202.05 432.92 199.85 434.19 199.85 366.56 199.85 359.17 199.85 359.16 323.3 287.92" style="fill:#fff;opacity:0.5"></polygon><path d="M117.37,311.53v75l2.2,1.23V339.29l78.08,45.13v48.46l2.2,1.31v-75Zm2.2,25.3V320L197.65,365v17Z" style="fill:#32947C"></path><path d="M117.37,311.53v75l2.2,1.23V339.29l78.08,45.13v48.46l2.2,1.31v-75Zm2.2,25.3V320L197.65,365v17Z" style="fill:#fff;opacity:0.30000000000000004"></path><polygon points="199.85 359.17 117.37 311.53 243.03 239.02 325.5 286.65 199.85 359.17" style="fill:#32947C"></polygon><polygon points="199.85 359.17 117.37 311.53 243.03 239.02 325.5 286.65 199.85 359.17" style="fill:#fff;opacity:0.65"></polygon></g><g id="freepik--Computer--inject-60"><g id="freepik--Keyboard--inject-60"><path id="freepik--shadow--inject-60" d="M192.24,291.26,207,299.83a1.79,1.79,0,0,0,1.61,0L251,275.37c.45-.25.45-.67,0-.93l-14.77-8.57a1.82,1.82,0,0,0-1.61,0l-42.42,24.46C191.79,290.59,191.79,291,192.24,291.26Z" style="opacity:0.15"></path><g id="freepik--keyboard--inject-60"><path d="M249.32,273.18a.57.57,0,0,0-.33-.46l-13.22-7.63a1.76,1.76,0,0,0-1.58,0l-40.34,23.33a.56.56,0,0,0-.33.46v1.38a.56.56,0,0,0,.33.46l13.21,7.63a1.76,1.76,0,0,0,1.58,0L249,275.06a.56.56,0,0,0,.33-.46Z" style="fill:#263238"></path><path d="M207.06,296.93l-13.21-7.6c-.44-.25-.44-.65,0-.91l40.34-23.33a1.76,1.76,0,0,1,1.58,0L249,272.72c.44.26.44.66,0,.92l-40.35,23.29A1.76,1.76,0,0,1,207.06,296.93Z" style="fill:#37474f"></path><path d="M207.8,297.12v1.41a1.5,1.5,0,0,1-.74-.18l-13.21-7.63a.56.56,0,0,1-.33-.45v-1.39a.56.56,0,0,0,.33.45l13.21,7.6A1.62,1.62,0,0,0,207.8,297.12Z" style="fill:#263238"></path><path d="M234.88,266.3h0l1.31.76-1.77,1-1.36-.76,1.78-1Zm2.05,1.18h0l1.31.76-1.4.8-1.35-.76,1.39-.8Zm-4.53.25h0l1.31.76-1.39.8-1.36-.76,1.4-.8Zm6.58.93h0l1.31.75-2.25,1.3-1.36-.76,2.25-1.3Zm-4.15,0h0l1.31.75-1.11.64-1.35-.76,1.11-.64Zm-4.53.25h0l1.31.75-1.39.81-1.35-.76,1.39-.81Zm2.72.8h0l1.31.76-1.11.64-1.35-.76,1.1-.64Zm8,.1h0l1.31.76-1.78,1-1.35-.76,1.77-1Zm-12.82.31h0l1.31.75-10.07,5.82-1.35-.76,10.07-5.82Zm7.81.22h0l1.31.76-1.11.64L234.9,271l1.11-.64Zm-4.81.41h0l1.31.75-1.11.64-1.35-.76,1.1-.63Zm11.87.25h0l1.3.76-1.1.64-1.36-.76,1.11-.64Zm-4.53.25h0l1.31.76-1.11.64-1.35-.76,1.1-.64Zm-4.34.14h0l1.31.76-1.11.64-1.35-.77,1.1-.63Zm-4.81.41h0l1.3.75-1.1.64-1.36-.76,1.11-.64Zm11.86.24h0l1.31.75-1.11.64-1.35-.76,1.11-.63Zm-4.52.25h0l1.31.75-1.1.64-1.36-.76,1.11-.64Zm-4.34.14h0l1.31.75-1.11.64-1.36-.76,1.11-.64Zm13.16,0h0l1.31.75-1.39.81-1.36-.76,1.4-.81Zm-18,.42h0l1.31.76-1.11.64-1.35-.76,1.11-.64Zm11.87.24h0l1.31.75-1.11.64-1.35-.76,1.1-.64Zm-4.53.25h0l1.31.76-1.11.64L233.8,274l1.11-.64Zm-4.33.14h0l1.31.76-1.1.64-1.36-.76,1.11-.64Zm-4.82.41h0l1.31.75-1.11.64-1.35-.76,1.1-.64Zm16.91.21h0l1.31.76-1.1.64-1.36-.76,1.11-.64Zm-5,0h0l1.31.76-1.11.64-1.35-.76,1.1-.64Zm-4.53.25h0l1.31.76-1.11.64-1.35-.76,1.1-.64Zm-4.34.13h0l1.31.76L229,276l-1.35-.76,1.11-.63ZM224,275h0l1.31.76-1.11.64-1.35-.76,1.1-.64Zm16.9.21h0l1.31.76-1.11.64-1.35-.76,1.11-.64Zm-5,0h0l1.3.75-1.1.64-1.36-.76,1.11-.64Zm-4.53.25h0l1.31.75-1.11.64-1.35-.76,1.1-.64Zm-4.34.14h0l1.31.75-1.11.64-1.35-.76,1.1-.64Zm-4.81.42h0l1.31.76-1.1.64-1.36-.76,1.11-.64Zm16.9.2h0l1.31.75-1.11.64-1.35-.76,1.1-.64Zm-5,0h0l1.31.76-1.11.64-1.35-.76,1.11-.64Zm-16.58.12h0l1.3.76-1.39.8-1.35-.76,1.39-.8Zm12.06.13h0l1.3.76-1.1.64-1.36-.76,1.11-.64Zm-4.34.14h0l1.31.76-1.11.64-1.35-.76,1.1-.64Zm-4.82.41h0l1.31.75-1.11.64-1.35-.76,1.11-.64Zm16.91.21h0l1.31.76-1.11.64-1.35-.76,1.1-.64Zm-5,0h0l1.31.76-1.11.64-1.35-.77,1.11-.63Zm-4.53.24h0l1.31.76-1.11.64-1.35-.77,1.11-.63Zm-12.34,0h0l1.31.76-1.4.8-1.35-.76,1.39-.8Zm8,.1h0l1.3.75-1.1.64-1.36-.76,1.11-.63Zm-4.82.42h0l1.31.76-1.11.64-1.35-.76,1.1-.64Zm11.87.24h0l1.31.75-1.11.64-1.35-.76,1.1-.64Zm-4.53.25h0l1.31.75-1.11.64-1.35-.76,1.1-.64Zm-4.34.14h0l1.31.75-1.11.64-1.35-.76,1.11-.64Zm13.12,0h0l1.31.75-1.11.64-1.36-.76,1.11-.64Zm-21.41,0h0l1.31.76-1.4.8-1.35-.76,1.39-.8Zm3.48.35h0l1.31.76-1.11.63-1.35-.76,1.1-.63Zm11.87.25h0l1.3.76-1.1.64-1.36-.76,1.11-.64Zm-4.53.25h0l1.31.76-1.11.64-1.35-.76,1.1-.64Zm-4.34.14h0l1.31.76-1.11.64-1.35-.76,1.1-.64Zm13.12,0h0l1.31.76-1.1.64-1.36-.76,1.11-.64Zm-21.7.19h0l1.31.75-1.78,1-1.35-.76,1.77-1Zm3.77.19h0l1.3.75-3.49,2-1.35-.76,3.49-2Zm11.87.24h0l1.31.76-1.11.63-1.35-.76,1.11-.63Zm-4.53.25h0l1.3.75-1.1.64-1.36-.76,1.11-.63Zm-4.34.14h0l1.31.75-1.11.64-1.35-.76,1.1-.64Zm13.11,0h0l1.31.75-1.11.64-1.35-.76,1.11-.64Zm-6.06.63h0l1.31.75-1.11.64-1.35-.76,1.11-.64Zm-16.68.17h0l1.31.75-1.11.64-1.35-.76,1.1-.64Zm12.15.08h0l1.31.75-1.11.64-1.35-.76,1.11-.64Zm-4.33.14h0l1.31.76-1,.58a.23.23,0,0,0-.11.19.21.21,0,0,0,.12.19l1.72,1-1.3.75-3.4-1.94,2.63-1.52Zm13.11,0h0l1.31.76-1.11.64-1.35-.76,1.1-.64Zm-6.06.63h0l1.31.76-1.11.64-1.35-.76,1.1-.64Zm-16.68.17h0l1.3.76-1.1.64-1.36-.76,1.11-.64Zm12.15.08h0l1.31.76-1.11.64-1.35-.76,1.1-.64Zm8,.62h0l1.31.75-1.11.64-1.35-.76,1.1-.64Zm-5.27.17h0l1.31.75-1.11.64-1.36-.76,1.11-.63Zm-16.69.17h0l1.31.76-1.11.63-1.35-.76,1.11-.63Zm3.87.14h0l1.3.75-1.1.64-1.36-.76,1.11-.64Zm16.28.57h0l1.3.76-1.1.64-1.36-.76,1.11-.64Zm-5.27.17h0l1.3.75-2,1.14-1.36-.76,2-1.14Zm-17.07.39h0l1.31.75-2.92,1.69-1.36-.76,2.92-1.69Zm12,.19s0,0,0,0l1.31.75-1.11.64-1.35-.76,1.11-.64Zm8.56.29h0l1.31.75-1.11.64-1.35-.76,1.11-.63Zm-18.47.7h0l1.31.75-1.11.64-1.35-.76,1.1-.63Zm8.1.06h0l1.31.76-1.11.64-1.35-.76,1.11-.64Zm3.86.13h0l1.31.75-1.11.64-1.35-.76,1.11-.64Zm4.7.16h0l1.31.75-1.11.64-1.35-.76,1.11-.64Zm-22.33.56h0l1.3.75-1.1.64-1.36-.76,1.11-.63Zm3.86.14h0l1.3.75-1.1.64-1.36-.76,1.11-.64Zm8.1.05h0l1.31.75-1.11.64-1.35-.76,1.1-.64Zm-4.24.09h0l1.31.76-1.11.64-1.36-.76,1.11-.64Zm8.1.05h0l1.31.76-1.11.64-1.35-.76,1.1-.64Zm4.3.39h0l1.31.76-1.11.64-1.35-.76,1.1-.64Zm-21.94.33h0l3.36,1.93-1.11.64-3.4-1.94,1.11-.64Zm3.86.14h0l1.31.76-1.11.64-1.35-.76,1.11-.64Zm3.86.13h0l1.31.75-1.1.64-1.36-.76,1.11-.64Zm8.11.06h0l1.31.76-1.11.64-1.35-.76,1.1-.64Zm-4.24.08h0l1.31.76-1.1.64-1.36-.76,1.11-.64Zm8.54.3h0l1.3.76-1.1.63-1.36-.76,1.11-.63Zm-14.22.61h0l1.31.75-1.11.64-1.35-.76,1.11-.64Zm3.86.14h0l1.31.76L207,291l-1.35-.76,1.11-.64Zm3.86.13h0l1.31.75-1.11.64-1.35-.76,1.11-.64Zm4.68.17h0l1.31.75-1.11.64-1.35-.76,1.11-.64Zm-14.21.61h0l3.36,1.94-1.11.64-3.4-1.94,1.1-.64Zm3.86.13h0l1.31.75-1.11.64-1.35-.76,1.1-.64Zm3.86.14h0l1.31.76-1.11.64-1.35-.76,1.11-.64Zm4.83.69h0l.56.32-1.1.64-.61-.33,1.1-.64Zm-6.64.35h0l1.31.76-1.11.64-1.35-.77,1.1-.63Zm4.82.7h0l.57.32-1.11.64-.6-.32,1.1-.64Zm-6.63.35h0l1.3.75-1.1.64-1.36-.76,1.11-.64Zm4.82.69h0l.57.32-1.11.64-.61-.33,1.1-.63Zm-1.81,1.05h0l.57.32-1.11.64-.61-.33,1.1-.64Z" style="fill:#32947C"></path></g></g><path d="M299.38,280.64l-2.7-1.51a3.31,3.31,0,0,0-3.06,0l-13.46,7.77-1.77-1a3,3,0,0,0-2.73,0l-16.34,9.5a.84.84,0,0,0,0,1.58l1.73,1L241.6,309.11a1,1,0,0,0,0,1.79l2.71,1.56a3.37,3.37,0,0,0,3.09,0l19.44-11.22a3,3,0,0,0,2.73,0l16.28-9.47a.82.82,0,0,0,.06-1.54l13.45-7.77A1,1,0,0,0,299.38,280.64Z" style="opacity:0.15"></path><path d="M296,267.31l3.8-45.1a3.85,3.85,0,0,0-1.68-3.38,4.33,4.33,0,0,0-3.87.07l-56.68,32.73a4.93,4.93,0,0,0-2.19,3.45l-3.8,45.1a3.85,3.85,0,0,0,1.69,3.38,4.29,4.29,0,0,0,3.87-.07l56.68-32.73A4.9,4.9,0,0,0,296,267.31Z" style="fill:#263238"></path><path d="M296,267.31l3.8-45.1a3.85,3.85,0,0,0-1.68-3.38,4.33,4.33,0,0,0-3.87.07l-56.68,32.73a4.46,4.46,0,0,0-1.46,1.47l7,4-.43,43.2,51.19-29.55A4.9,4.9,0,0,0,296,267.31Z" style="fill:#455a64"></path><path d="M235.29,302.34l3.8-45.1a4.92,4.92,0,0,1,2.18-3.45l56-32.35c1.1-.64,1.56-.16,1.46,1.11L296,267.31a4.9,4.9,0,0,1-2.18,3.45L237.1,303.49C236,304.12,235.19,303.61,235.29,302.34Z" style="fill:#37474f"></path><path d="M266.11,262.63a7.78,7.78,0,0,1,3.28-5.5c1.63-.94,2.82,0,2.64,2.07a7.71,7.71,0,0,1-3.27,5.5C267.13,265.65,265.94,264.72,266.11,262.63Z" style="fill:#32947C"></path><polygon points="265.72 278.29 276.71 271.9 274.84 270.82 263.86 277.21 265.72 278.29" style="fill:#455a64"></polygon><path d="M281.81,290.64l-13.38,7.73a1.63,1.63,0,0,1-.86.19,1.7,1.7,0,0,1-.72-.18h0l-5.9-3.4,0,0a1.72,1.72,0,0,1-.77-1.37v-.31c0-.51.35-.72.79-.46l3.56,2.05.8.46-.18-.91-1.25-17.2,1.86,1.08,11-6.38,5.72,17.37A1.4,1.4,0,0,1,281.81,290.64Z" style="fill:#37474f"></path><polygon points="260.39 292.74 264.95 290.11 265.88 296.25 260.39 292.74"></polygon><path d="M265.72,278.29l-1.86-1.08,1.25,17.2c.1.5-.18.7-.62.45l-3.56-2.05c-.44-.26-.79-.05-.79.46v.31a1.72,1.72,0,0,0,.77,1.37l0,0,5.9,3.4h0a1.7,1.7,0,0,0,.72.18Z" style="fill:#263238"></path></g><g id="freepik--Files--inject-60"><path id="freepik--shadow--inject-60" d="M229.7,324.46a.6.6,0,0,0,0-1.13L185.82,298a2.16,2.16,0,0,0-1.95,0l-37.64,21.73,45.85,26.45Z" style="opacity:0.15"></path><g id="freepik--File--inject-60"><path d="M226.36,324.29a.63.63,0,0,0,.37-.51V323l-40.44-22.86a2,2,0,0,0-1.77,0l-34.18,19.73L192.19,344Z" style="fill:#32947C"></path><path d="M226.36,324.29a.63.63,0,0,0,.37-.51V323l-40.44-22.86a2,2,0,0,0-1.77,0l-34.18,19.73L192.19,344Z" style="opacity:0.2"></path><path d="M226.36,323.53a.54.54,0,0,0,0-1l-40.07-23.14a2,2,0,0,0-1.77,0l-34.18,19.74,41.85,24.14Z" style="fill:#32947C"></path><path d="M226.36,323.53a.54.54,0,0,0,0-1l-40.07-23.14a2,2,0,0,0-1.77,0l-34.18,19.74,41.85,24.14Z" style="opacity:0.5"></path><path d="M158.21,314l25.3-14.6a2,2,0,0,1,1.77,0l37.15,21.44,3.29-1.92v3.9l-.06,0c.11.24,0,.5-.31.69l-29,16.73-41.85-24.15v-4.26Z" style="fill:#ebebeb"></path><path d="M225.35,319.24a.54.54,0,0,0,0-1l-40.07-23.13a2,2,0,0,0-1.77,0l-29,16.73L196.37,336Z" style="fill:#fafafa"></path><polygon points="196.37 335.97 196.37 340.23 154.52 316.08 154.52 311.82 196.37 335.97" style="fill:#e6e6e6"></polygon><path d="M195.9,334.31a1.28,1.28,0,0,0,.33.11,1,1,0,0,0,.52,0,.58.58,0,0,0,.17-.06c.26-.15.23-.41-.08-.59a1.12,1.12,0,0,0-.46-.13,1,1,0,0,0-.55.09.1.1,0,0,0-.05,0C195.58,333.92,195.62,334.14,195.9,334.31Z" style="fill:#263238"></path><path d="M191.44,337.64a2.28,2.28,0,0,0,.45,1.47,1.55,1.55,0,0,0,1.26.6h0a2.42,2.42,0,0,0,1.23-.37l.23-.13-.5-.29c-1.21.68-2.17.11-2.17-1.28a4.83,4.83,0,0,1,2.19-3.79,1.46,1.46,0,0,1,1.64-.09,1.16,1.16,0,0,1,.45.66,1,1,0,0,0,.52,0,1.77,1.77,0,0,0-.37-.78,1.56,1.56,0,0,0-1.26-.59,2.45,2.45,0,0,0-1.24.37A5.29,5.29,0,0,0,191.44,337.64Z" style="fill:#263238"></path><path d="M192.71,333.61l34-16.62v.55a1,1,0,0,1-.45.77l-33.57,16.07Z" style="fill:#32947C"></path><path d="M192.71,333.61l34-16.62v.55a1,1,0,0,1-.45.77l-33.57,16.07Z" style="opacity:0.2"></path><path d="M226.36,317.5a.54.54,0,0,0,0-1l-40.07-23.13a2,2,0,0,0-1.77,0l-34.18,16.41,41.85,24.15Z" style="fill:#32947C"></path><polygon points="192.19 344.02 150.34 319.88 150.34 309.74 192.19 333.9 192.19 344.02" style="fill:#32947C"></polygon><polygon points="192.19 344.02 150.34 319.88 150.34 309.74 192.19 333.9 192.19 344.02" style="opacity:0.1"></polygon><path d="M184.41,337.52a1.63,1.63,0,0,0,1.28-.6,2.37,2.37,0,0,0,.44-1.48,5.32,5.32,0,0,0-2.44-4.23,2.45,2.45,0,0,0-1.24-.37c-1,0-1.72.83-1.72,2.07a5.34,5.34,0,0,0,2.45,4.24,2.42,2.42,0,0,0,1.23.37Z" style="fill:#455a64"></path><path d="M185.62,335.44c0,1.4-1,2-2.19,1.27a4.85,4.85,0,0,1-2.19-3.8c0-1.39,1-2,2.19-1.26A4.85,4.85,0,0,1,185.62,335.44Z" style="fill:#f5f5f5"></path><path d="M177.67,330.36v.76c0,1.54-1.07,2.16-2.4,1.39l-19.5-11.26a5.3,5.3,0,0,1-2.41-4.16v-.77c0-1.53,1.08-2.16,2.41-1.39l19.5,11.26A5.31,5.31,0,0,1,177.67,330.36Z" style="fill:#f5f5f5"></path><polygon points="192.72 343.72 192.72 333.64 192.19 333.9 192.19 344.02 192.72 343.72" style="fill:#32947C"></polygon><polygon points="192.72 343.72 192.72 333.64 192.19 333.9 192.19 344.02 192.72 343.72" style="opacity:0.2"></polygon></g></g></g></g><g id="freepik--speech-bubble--inject-60"><g id="freepik--speech-bubble--inject-60"><g id="freepik--speech-bubble--inject-60"><path d="M413.15,167.8l2.5-4.71-2-5.82v-3.56l6.17,3.56v3.56l-2.66,4.6a.46.46,0,0,1-.18.16h0Z" style="fill:#32947C"></path><path d="M413.15,167.8l2.5-4.71-2-5.82v-3.56l6.17,3.56v3.56l-2.66,4.6a.46.46,0,0,1-.18.16h0Z" style="opacity:0.2"></path><path d="M398.41,125.39a4.1,4.1,0,0,1,1.85-3.21l1.51-.87a4.09,4.09,0,0,1,3.7,0l23.1,13.36a4.1,4.1,0,0,1,1.85,3.21v25.41a4.1,4.1,0,0,1-1.85,3.21l-1.51.87a4.09,4.09,0,0,1-3.7,0l-7.43-4.29-2.65,4.58a.39.39,0,0,1-.71-.07l-2.8-8.07L400.26,154a4.1,4.1,0,0,1-1.85-3.21Z" style="fill:#32947C"></path><path d="M430.42,163.29a4.1,4.1,0,0,1-1.85,3.21l-1.51.87a4.14,4.14,0,0,1-3.38.15c.87.33,1.53-.17,1.53-1.22V140.88a3.82,3.82,0,0,0-.54-1.82l5.2-3a3.76,3.76,0,0,1,.55,1.83Z" style="opacity:0.2"></path><path d="M398.47,124.86c.22-.78.93-1,1.79-.54l23.1,13.36a3.61,3.61,0,0,1,1.3,1.38l5.21-3a3.77,3.77,0,0,0-1.3-1.38l-23.1-13.37a4.15,4.15,0,0,0-3.7,0l-1.51.88A4.08,4.08,0,0,0,398.47,124.86Z" style="fill:#fff;opacity:0.30000000000000004"></path></g><path d="M418.78,146.37a10.55,10.55,0,0,0-.87-4.13h0l0,0a7.27,7.27,0,0,0-2.62-3.37c-1.8-1.05-3.3,1.11-3.53,3.66-.22-2.81-1.68-6.72-3.48-7.77a2,2,0,0,0-2.64.28h0a4.74,4.74,0,0,0-.91,3.09c0,4.31,2.55,8.2,4.7,12.3l2.33,4L414,153.1C416.16,151.54,418.76,150.68,418.78,146.37Z" style="fill:#fafafa"></path></g></g></svg>
